  0
SECTION
  2
HEADER
  9
$ACADVER
  1
AC1009
  9
$FILLMODE
 70
 0
  9
$SPLFRAME
 70
 1
  9
$EXTMIN
 10
0
 20
0
 30
0.0
  9
$EXTMAX
 10
1058.33
 20
1058.33
 30
0.0
  0
ENDSEC
  0
SECTION
  2
TABLES
  0
TABLE
  2
LAYER
 70
1
  0
LAYER
  2
0
 70
     0
 62
     7
  6
CONTINUOUS
  0
ENDTAB
  0
ENDSEC
  0
SECTION
  2
ENTITIES
  0
LINE
  8
0
 62
     0
 10
244.04
 20
130.852
 30
0.0
 11
247.482
 21
118.004
 31
0.0
  0
LINE
  8
0
 62
     0
 10
247.482
 20
118.004
 30
0.0
 11
247.492
 21
117.964
 31
0.0
  0
LINE
  8
0
 62
     0
 10
247.492
 20
117.964
 30
0.0
 11
247.621
 21
117.822
 31
0.0
  0
LINE
  8
0
 62
     0
 10
247.621
 20
117.822
 30
0.0
 11
247.808
 21
117.782
 31
0.0
  0
LINE
  8
0
 62
     0
 10
247.808
 20
117.782
 30
0.0
 11
247.849
 21
117.792
 31
0.0
  0
LINE
  8
0
 62
     0
 10
247.849
 20
117.792
 30
0.0
 11
260.696
 21
121.234
 31
0.0
  0
LINE
  8
0
 62
     0
 10
260.696
 20
121.234
 30
0.0
 11
260.736
 21
121.245
 31
0.0
  0
LINE
  8
0
 62
     0
 10
260.736
 20
121.245
 30
0.0
 11
260.878
 21
121.375
 31
0.0
  0
LINE
  8
0
 62
     0
 10
260.878
 20
121.375
 30
0.0
 11
260.918
 21
121.562
 31
0.0
  0
LINE
  8
0
 62
     0
 10
260.918
 20
121.562
 30
0.0
 11
260.908
 21
121.602
 31
0.0
  0
LINE
  8
0
 62
     0
 10
260.908
 20
121.602
 30
0.0
 11
257.466
 21
134.45
 31
0.0
  0
LINE
  8
0
 62
     0
 10
257.466
 20
134.45
 30
0.0
 11
257.455
 21
134.489
 31
0.0
  0
LINE
  8
0
 62
     0
 10
257.455
 20
134.489
 30
0.0
 11
257.325
 21
134.632
 31
0.0
  0
LINE
  8
0
 62
     0
 10
257.325
 20
134.632
 30
0.0
 11
257.138
 21
134.672
 31
0.0
  0
LINE
  8
0
 62
     0
 10
257.138
 20
134.672
 30
0.0
 11
257.098
 21
134.661
 31
0.0
  0
LINE
  8
0
 62
     0
 10
257.098
 20
134.661
 30
0.0
 11
244.252
 21
131.218
 31
0.0
  0
LINE
  8
0
 62
     0
 10
244.252
 20
131.218
 30
0.0
 11
244.212
 21
131.209
 31
0.0
  0
LINE
  8
0
 62
     0
 10
244.212
 20
131.209
 30
0.0
 11
244.069
 21
131.079
 31
0.0
  0
LINE
  8
0
 62
     0
 10
244.069
 20
131.079
 30
0.0
 11
244.028
 21
130.891
 31
0.0
  0
LINE
  8
0
 62
     0
 10
244.028
 20
130.891
 30
0.0
 11
244.04
 21
130.852
 31
0.0
  0
LINE
  8
0
 62
     0
 10
251.047
 20
158.404
 30
0.0
 11
247.604
 21
171.25
 31
0.0
  0
LINE
  8
0
 62
     0
 10
247.604
 20
171.25
 30
0.0
 11
247.594
 21
171.292
 31
0.0
  0
LINE
  8
0
 62
     0
 10
247.594
 20
171.292
 30
0.0
 11
247.464
 21
171.433
 31
0.0
  0
LINE
  8
0
 62
     0
 10
247.464
 20
171.433
 30
0.0
 11
247.278
 21
171.473
 31
0.0
  0
LINE
  8
0
 62
     0
 10
247.278
 20
171.473
 30
0.0
 11
247.238
 21
171.462
 31
0.0
  0
LINE
  8
0
 62
     0
 10
247.238
 20
171.462
 30
0.0
 11
234.39
 21
168.02
 31
0.0
  0
LINE
  8
0
 62
     0
 10
234.39
 20
168.02
 30
0.0
 11
234.351
 21
168.01
 31
0.0
  0
LINE
  8
0
 62
     0
 10
234.351
 20
168.01
 30
0.0
 11
234.207
 21
167.881
 31
0.0
  0
LINE
  8
0
 62
     0
 10
234.207
 20
167.881
 30
0.0
 11
234.167
 21
167.694
 31
0.0
  0
LINE
  8
0
 62
     0
 10
234.167
 20
167.694
 30
0.0
 11
234.178
 21
167.653
 31
0.0
  0
LINE
  8
0
 62
     0
 10
234.178
 20
167.653
 30
0.0
 11
237.621
 21
154.806
 31
0.0
  0
LINE
  8
0
 62
     0
 10
237.621
 20
154.806
 30
0.0
 11
237.63
 21
154.766
 31
0.0
  0
LINE
  8
0
 62
     0
 10
237.63
 20
154.766
 30
0.0
 11
237.76
 21
154.624
 31
0.0
  0
LINE
  8
0
 62
     0
 10
237.76
 20
154.624
 30
0.0
 11
237.949
 21
154.584
 31
0.0
  0
LINE
  8
0
 62
     0
 10
237.949
 20
154.584
 30
0.0
 11
237.988
 21
154.594
 31
0.0
  0
LINE
  8
0
 62
     0
 10
237.988
 20
154.594
 30
0.0
 11
250.835
 21
158.036
 31
0.0
  0
LINE
  8
0
 62
     0
 10
250.835
 20
158.036
 30
0.0
 11
250.875
 21
158.047
 31
0.0
  0
LINE
  8
0
 62
     0
 10
250.875
 20
158.047
 30
0.0
 11
251.017
 21
158.177
 31
0.0
  0
LINE
  8
0
 62
     0
 10
251.017
 20
158.177
 30
0.0
 11
251.056
 21
158.364
 31
0.0
  0
LINE
  8
0
 62
     0
 10
251.056
 20
158.364
 30
0.0
 11
251.047
 21
158.404
 31
0.0
  0
LINE
  8
0
 62
     0
 10
209.567
 20
112.298
 30
0.0
 11
213.009
 21
99.4502
 31
0.0
  0
LINE
  8
0
 62
     0
 10
213.009
 20
99.4502
 30
0.0
 11
213.019
 21
99.4103
 31
0.0
  0
LINE
  8
0
 62
     0
 10
213.019
 20
99.4103
 30
0.0
 11
213.148
 21
99.2685
 31
0.0
  0
LINE
  8
0
 62
     0
 10
213.148
 20
99.2685
 30
0.0
 11
213.337
 21
99.2283
 31
0.0
  0
LINE
  8
0
 62
     0
 10
213.337
 20
99.2283
 30
0.0
 11
213.377
 21
99.2382
 31
0.0
  0
LINE
  8
0
 62
     0
 10
213.377
 20
99.2382
 30
0.0
 11
226.223
 21
102.681
 31
0.0
  0
LINE
  8
0
 62
     0
 10
226.223
 20
102.681
 30
0.0
 11
226.263
 21
102.691
 31
0.0
  0
LINE
  8
0
 62
     0
 10
226.263
 20
102.691
 30
0.0
 11
226.405
 21
102.821
 31
0.0
  0
LINE
  8
0
 62
     0
 10
226.405
 20
102.821
 30
0.0
 11
226.446
 21
103.008
 31
0.0
  0
LINE
  8
0
 62
     0
 10
226.446
 20
103.008
 30
0.0
 11
226.435
 21
103.048
 31
0.0
  0
LINE
  8
0
 62
     0
 10
226.435
 20
103.048
 30
0.0
 11
222.993
 21
115.895
 31
0.0
  0
LINE
  8
0
 62
     0
 10
222.993
 20
115.895
 30
0.0
 11
222.982
 21
115.934
 31
0.0
  0
LINE
  8
0
 62
     0
 10
222.982
 20
115.934
 30
0.0
 11
222.852
 21
116.078
 31
0.0
  0
LINE
  8
0
 62
     0
 10
222.852
 20
116.078
 30
0.0
 11
222.666
 21
116.118
 31
0.0
  0
LINE
  8
0
 62
     0
 10
222.666
 20
116.118
 30
0.0
 11
222.626
 21
116.107
 31
0.0
  0
LINE
  8
0
 62
     0
 10
222.626
 20
116.107
 30
0.0
 11
209.779
 21
112.664
 31
0.0
  0
LINE
  8
0
 62
     0
 10
209.779
 20
112.664
 30
0.0
 11
209.739
 21
112.655
 31
0.0
  0
LINE
  8
0
 62
     0
 10
209.739
 20
112.655
 30
0.0
 11
209.596
 21
112.525
 31
0.0
  0
LINE
  8
0
 62
     0
 10
209.596
 20
112.525
 30
0.0
 11
209.556
 21
112.338
 31
0.0
  0
LINE
  8
0
 62
     0
 10
209.556
 20
112.338
 30
0.0
 11
209.567
 21
112.298
 31
0.0
  0
LINE
  8
0
 62
     0
 10
205.734
 20
78.2394
 30
0.0
 11
215.139
 21
68.8358
 31
0.0
  0
LINE
  8
0
 62
     0
 10
215.139
 20
68.8358
 30
0.0
 11
215.168
 21
68.8068
 31
0.0
  0
LINE
  8
0
 62
     0
 10
215.168
 20
68.8068
 30
0.0
 11
215.533
 21
68.8068
 31
0.0
  0
LINE
  8
0
 62
     0
 10
215.533
 20
68.8068
 30
0.0
 11
215.564
 21
68.8358
 31
0.0
  0
LINE
  8
0
 62
     0
 10
215.564
 20
68.8358
 30
0.0
 11
224.967
 21
78.2394
 31
0.0
  0
LINE
  8
0
 62
     0
 10
224.967
 20
78.2394
 30
0.0
 11
224.996
 21
78.2697
 31
0.0
  0
LINE
  8
0
 62
     0
 10
224.996
 20
78.2697
 30
0.0
 11
224.996
 21
78.6349
 31
0.0
  0
LINE
  8
0
 62
     0
 10
224.996
 20
78.6349
 30
0.0
 11
224.967
 21
78.6638
 31
0.0
  0
LINE
  8
0
 62
     0
 10
224.967
 20
78.6638
 30
0.0
 11
215.564
 21
88.0692
 31
0.0
  0
LINE
  8
0
 62
     0
 10
215.564
 20
88.0692
 30
0.0
 11
215.533
 21
88.0992
 31
0.0
  0
LINE
  8
0
 62
     0
 10
215.533
 20
88.0992
 30
0.0
 11
215.168
 21
88.0992
 31
0.0
  0
LINE
  8
0
 62
     0
 10
215.168
 20
88.0992
 30
0.0
 11
215.139
 21
88.0692
 31
0.0
  0
LINE
  8
0
 62
     0
 10
215.139
 20
88.0692
 30
0.0
 11
205.734
 21
78.6638
 31
0.0
  0
LINE
  8
0
 62
     0
 10
205.734
 20
78.6638
 30
0.0
 11
205.704
 21
78.6349
 31
0.0
  0
LINE
  8
0
 62
     0
 10
205.704
 20
78.6349
 30
0.0
 11
205.704
 21
78.2697
 31
0.0
  0
LINE
  8
0
 62
     0
 10
205.704
 20
78.2697
 30
0.0
 11
205.734
 21
78.2394
 31
0.0
  0
LINE
  8
0
 62
     0
 10
257.943
 20
153.73
 30
0.0
 11
270.789
 21
157.172
 31
0.0
  0
LINE
  8
0
 62
     0
 10
270.789
 20
157.172
 30
0.0
 11
270.829
 21
157.183
 31
0.0
  0
LINE
  8
0
 62
     0
 10
270.829
 20
157.183
 30
0.0
 11
270.97
 21
157.313
 31
0.0
  0
LINE
  8
0
 62
     0
 10
270.97
 20
157.313
 30
0.0
 11
271.011
 21
157.499
 31
0.0
  0
LINE
  8
0
 62
     0
 10
271.011
 20
157.499
 30
0.0
 11
271.001
 21
157.539
 31
0.0
  0
LINE
  8
0
 62
     0
 10
271.001
 20
157.539
 30
0.0
 11
267.559
 21
170.386
 31
0.0
  0
LINE
  8
0
 62
     0
 10
267.559
 20
170.386
 30
0.0
 11
267.547
 21
170.426
 31
0.0
  0
LINE
  8
0
 62
     0
 10
267.547
 20
170.426
 30
0.0
 11
267.418
 21
170.569
 31
0.0
  0
LINE
  8
0
 62
     0
 10
267.418
 20
170.569
 30
0.0
 11
267.231
 21
170.609
 31
0.0
  0
LINE
  8
0
 62
     0
 10
267.231
 20
170.609
 30
0.0
 11
267.191
 21
170.598
 31
0.0
  0
LINE
  8
0
 62
     0
 10
267.191
 20
170.598
 30
0.0
 11
254.345
 21
167.156
 31
0.0
  0
LINE
  8
0
 62
     0
 10
254.345
 20
167.156
 30
0.0
 11
254.304
 21
167.146
 31
0.0
  0
LINE
  8
0
 62
     0
 10
254.304
 20
167.146
 30
0.0
 11
254.161
 21
167.017
 31
0.0
  0
LINE
  8
0
 62
     0
 10
254.161
 20
167.017
 30
0.0
 11
254.121
 21
166.828
 31
0.0
  0
LINE
  8
0
 62
     0
 10
254.121
 20
166.828
 30
0.0
 11
254.132
 21
166.788
 31
0.0
  0
LINE
  8
0
 62
     0
 10
254.132
 20
166.788
 30
0.0
 11
257.575
 21
153.941
 31
0.0
  0
LINE
  8
0
 62
     0
 10
257.575
 20
153.941
 30
0.0
 11
257.584
 21
153.901
 31
0.0
  0
LINE
  8
0
 62
     0
 10
257.584
 20
153.901
 30
0.0
 11
257.714
 21
153.759
 31
0.0
  0
LINE
  8
0
 62
     0
 10
257.714
 20
153.759
 30
0.0
 11
257.901
 21
153.719
 31
0.0
  0
LINE
  8
0
 62
     0
 10
257.901
 20
153.719
 30
0.0
 11
257.943
 21
153.73
 31
0.0
  0
LINE
  8
0
 62
     0
 10
293.628
 20
145.536
 30
0.0
 11
280.782
 21
142.094
 31
0.0
  0
LINE
  8
0
 62
     0
 10
280.782
 20
142.094
 30
0.0
 11
280.741
 21
142.084
 31
0.0
  0
LINE
  8
0
 62
     0
 10
280.741
 20
142.084
 30
0.0
 11
280.599
 21
141.955
 31
0.0
  0
LINE
  8
0
 62
     0
 10
280.599
 20
141.955
 30
0.0
 11
280.559
 21
141.767
 31
0.0
  0
LINE
  8
0
 62
     0
 10
280.559
 20
141.767
 30
0.0
 11
280.57
 21
141.727
 31
0.0
  0
LINE
  8
0
 62
     0
 10
280.57
 20
141.727
 30
0.0
 11
284.012
 21
128.88
 31
0.0
  0
LINE
  8
0
 62
     0
 10
284.012
 20
128.88
 30
0.0
 11
284.022
 21
128.84
 31
0.0
  0
LINE
  8
0
 62
     0
 10
284.022
 20
128.84
 30
0.0
 11
284.152
 21
128.698
 31
0.0
  0
LINE
  8
0
 62
     0
 10
284.152
 20
128.698
 30
0.0
 11
284.339
 21
128.658
 31
0.0
  0
LINE
  8
0
 62
     0
 10
284.339
 20
128.658
 30
0.0
 11
284.379
 21
128.668
 31
0.0
  0
LINE
  8
0
 62
     0
 10
284.379
 20
128.668
 30
0.0
 11
297.226
 21
132.11
 31
0.0
  0
LINE
  8
0
 62
     0
 10
297.226
 20
132.11
 30
0.0
 11
297.266
 21
132.121
 31
0.0
  0
LINE
  8
0
 62
     0
 10
297.266
 20
132.121
 30
0.0
 11
297.408
 21
132.25
 31
0.0
  0
LINE
  8
0
 62
     0
 10
297.408
 20
132.25
 30
0.0
 11
297.448
 21
132.438
 31
0.0
  0
LINE
  8
0
 62
     0
 10
297.448
 20
132.438
 30
0.0
 11
297.439
 21
132.478
 31
0.0
  0
LINE
  8
0
 62
     0
 10
297.439
 20
132.478
 30
0.0
 11
293.996
 21
145.324
 31
0.0
  0
LINE
  8
0
 62
     0
 10
293.996
 20
145.324
 30
0.0
 11
293.985
 21
145.364
 31
0.0
  0
LINE
  8
0
 62
     0
 10
293.985
 20
145.364
 30
0.0
 11
293.856
 21
145.507
 31
0.0
  0
LINE
  8
0
 62
     0
 10
293.856
 20
145.507
 30
0.0
 11
293.668
 21
145.547
 31
0.0
  0
LINE
  8
0
 62
     0
 10
293.668
 20
145.547
 30
0.0
 11
293.628
 21
145.536
 31
0.0
  0
LINE
  8
0
 62
     0
 10
285.501
 20
123.326
 30
0.0
 11
288.942
 21
110.479
 31
0.0
  0
LINE
  8
0
 62
     0
 10
288.942
 20
110.479
 30
0.0
 11
288.953
 21
110.439
 31
0.0
  0
LINE
  8
0
 62
     0
 10
288.953
 20
110.439
 30
0.0
 11
289.082
 21
110.297
 31
0.0
  0
LINE
  8
0
 62
     0
 10
289.082
 20
110.297
 30
0.0
 11
289.27
 21
110.257
 31
0.0
  0
LINE
  8
0
 62
     0
 10
289.27
 20
110.257
 30
0.0
 11
289.31
 21
110.266
 31
0.0
  0
LINE
  8
0
 62
     0
 10
289.31
 20
110.266
 30
0.0
 11
302.157
 21
113.709
 31
0.0
  0
LINE
  8
0
 62
     0
 10
302.157
 20
113.709
 30
0.0
 11
302.197
 21
113.72
 31
0.0
  0
LINE
  8
0
 62
     0
 10
302.197
 20
113.72
 30
0.0
 11
302.339
 21
113.85
 31
0.0
  0
LINE
  8
0
 62
     0
 10
302.339
 20
113.85
 30
0.0
 11
302.379
 21
114.037
 31
0.0
  0
LINE
  8
0
 62
     0
 10
302.379
 20
114.037
 30
0.0
 11
302.369
 21
114.077
 31
0.0
  0
LINE
  8
0
 62
     0
 10
302.369
 20
114.077
 30
0.0
 11
298.927
 21
126.923
 31
0.0
  0
LINE
  8
0
 62
     0
 10
298.927
 20
126.923
 30
0.0
 11
298.916
 21
126.964
 31
0.0
  0
LINE
  8
0
 62
     0
 10
298.916
 20
126.964
 30
0.0
 11
298.786
 21
127.106
 31
0.0
  0
LINE
  8
0
 62
     0
 10
298.786
 20
127.106
 30
0.0
 11
298.599
 21
127.146
 31
0.0
  0
LINE
  8
0
 62
     0
 10
298.599
 20
127.146
 30
0.0
 11
298.559
 21
127.135
 31
0.0
  0
LINE
  8
0
 62
     0
 10
298.559
 20
127.135
 30
0.0
 11
285.712
 21
123.693
 31
0.0
  0
LINE
  8
0
 62
     0
 10
285.712
 20
123.693
 30
0.0
 11
285.671
 21
123.683
 31
0.0
  0
LINE
  8
0
 62
     0
 10
285.671
 20
123.683
 30
0.0
 11
285.53
 21
123.553
 31
0.0
  0
LINE
  8
0
 62
     0
 10
285.53
 20
123.553
 30
0.0
 11
285.49
 21
123.366
 31
0.0
  0
LINE
  8
0
 62
     0
 10
285.49
 20
123.366
 30
0.0
 11
285.501
 21
123.326
 31
0.0
  0
LINE
  8
0
 62
     0
 10
288.697
 20
163.937
 30
0.0
 11
275.851
 21
160.494
 31
0.0
  0
LINE
  8
0
 62
     0
 10
275.851
 20
160.494
 30
0.0
 11
275.81
 21
160.485
 31
0.0
  0
LINE
  8
0
 62
     0
 10
275.81
 20
160.485
 30
0.0
 11
275.668
 21
160.355
 31
0.0
  0
LINE
  8
0
 62
     0
 10
275.668
 20
160.355
 30
0.0
 11
275.628
 21
160.168
 31
0.0
  0
LINE
  8
0
 62
     0
 10
275.628
 20
160.168
 30
0.0
 11
275.639
 21
160.128
 31
0.0
  0
LINE
  8
0
 62
     0
 10
275.639
 20
160.128
 30
0.0
 11
279.082
 21
147.28
 31
0.0
  0
LINE
  8
0
 62
     0
 10
279.082
 20
147.28
 30
0.0
 11
279.091
 21
147.241
 31
0.0
  0
LINE
  8
0
 62
     0
 10
279.091
 20
147.241
 30
0.0
 11
279.221
 21
147.099
 31
0.0
  0
LINE
  8
0
 62
     0
 10
279.221
 20
147.099
 30
0.0
 11
279.408
 21
147.059
 31
0.0
  0
LINE
  8
0
 62
     0
 10
279.408
 20
147.059
 30
0.0
 11
279.448
 21
147.068
 31
0.0
  0
LINE
  8
0
 62
     0
 10
279.448
 20
147.068
 30
0.0
 11
292.296
 21
150.511
 31
0.0
  0
LINE
  8
0
 62
     0
 10
292.296
 20
150.511
 30
0.0
 11
292.336
 21
150.522
 31
0.0
  0
LINE
  8
0
 62
     0
 10
292.336
 20
150.522
 30
0.0
 11
292.477
 21
150.651
 31
0.0
  0
LINE
  8
0
 62
     0
 10
292.477
 20
150.651
 30
0.0
 11
292.518
 21
150.839
 31
0.0
  0
LINE
  8
0
 62
     0
 10
292.518
 20
150.839
 30
0.0
 11
292.508
 21
150.879
 31
0.0
  0
LINE
  8
0
 62
     0
 10
292.508
 20
150.879
 30
0.0
 11
289.065
 21
163.725
 31
0.0
  0
LINE
  8
0
 62
     0
 10
289.065
 20
163.725
 30
0.0
 11
289.054
 21
163.765
 31
0.0
  0
LINE
  8
0
 62
     0
 10
289.054
 20
163.765
 30
0.0
 11
288.925
 21
163.908
 31
0.0
  0
LINE
  8
0
 62
     0
 10
288.925
 20
163.908
 30
0.0
 11
288.738
 21
163.948
 31
0.0
  0
LINE
  8
0
 62
     0
 10
288.738
 20
163.948
 30
0.0
 11
288.697
 21
163.937
 31
0.0
  0
LINE
  8
0
 62
     0
 10
221.269
 20
143.385
 30
0.0
 11
234.116
 21
146.827
 31
0.0
  0
LINE
  8
0
 62
     0
 10
234.116
 20
146.827
 30
0.0
 11
234.156
 21
146.838
 31
0.0
  0
LINE
  8
0
 62
     0
 10
234.156
 20
146.838
 30
0.0
 11
234.298
 21
146.968
 31
0.0
  0
LINE
  8
0
 62
     0
 10
234.298
 20
146.968
 30
0.0
 11
234.338
 21
147.155
 31
0.0
  0
LINE
  8
0
 62
     0
 10
234.338
 20
147.155
 30
0.0
 11
234.328
 21
147.195
 31
0.0
  0
LINE
  8
0
 62
     0
 10
234.328
 20
147.195
 30
0.0
 11
230.886
 21
160.041
 31
0.0
  0
LINE
  8
0
 62
     0
 10
230.886
 20
160.041
 30
0.0
 11
230.875
 21
160.082
 31
0.0
  0
LINE
  8
0
 62
     0
 10
230.875
 20
160.082
 30
0.0
 11
230.746
 21
160.225
 31
0.0
  0
LINE
  8
0
 62
     0
 10
230.746
 20
160.225
 30
0.0
 11
230.558
 21
160.264
 31
0.0
  0
LINE
  8
0
 62
     0
 10
230.558
 20
160.264
 30
0.0
 11
230.518
 21
160.254
 31
0.0
  0
LINE
  8
0
 62
     0
 10
230.518
 20
160.254
 30
0.0
 11
217.672
 21
156.811
 31
0.0
  0
LINE
  8
0
 62
     0
 10
217.672
 20
156.811
 30
0.0
 11
217.632
 21
156.802
 31
0.0
  0
LINE
  8
0
 62
     0
 10
217.632
 20
156.802
 30
0.0
 11
217.489
 21
156.672
 31
0.0
  0
LINE
  8
0
 62
     0
 10
217.489
 20
156.672
 30
0.0
 11
217.449
 21
156.484
 31
0.0
  0
LINE
  8
0
 62
     0
 10
217.449
 20
156.484
 30
0.0
 11
217.46
 21
156.445
 31
0.0
  0
LINE
  8
0
 62
     0
 10
217.46
 20
156.445
 30
0.0
 11
220.902
 21
143.597
 31
0.0
  0
LINE
  8
0
 62
     0
 10
220.902
 20
143.597
 30
0.0
 11
220.912
 21
143.557
 31
0.0
  0
LINE
  8
0
 62
     0
 10
220.912
 20
143.557
 30
0.0
 11
221.041
 21
143.415
 31
0.0
  0
LINE
  8
0
 62
     0
 10
221.041
 20
143.415
 30
0.0
 11
221.229
 21
143.375
 31
0.0
  0
LINE
  8
0
 62
     0
 10
221.229
 20
143.375
 30
0.0
 11
221.269
 21
143.385
 31
0.0
  0
LINE
  8
0
 62
     0
 10
226.199
 20
124.984
 30
0.0
 11
239.047
 21
128.426
 31
0.0
  0
LINE
  8
0
 62
     0
 10
239.047
 20
128.426
 30
0.0
 11
239.087
 21
128.437
 31
0.0
  0
LINE
  8
0
 62
     0
 10
239.087
 20
128.437
 30
0.0
 11
239.229
 21
128.567
 31
0.0
  0
LINE
  8
0
 62
     0
 10
239.229
 20
128.567
 30
0.0
 11
239.269
 21
128.754
 31
0.0
  0
LINE
  8
0
 62
     0
 10
239.269
 20
128.754
 30
0.0
 11
239.259
 21
128.794
 31
0.0
  0
LINE
  8
0
 62
     0
 10
239.259
 20
128.794
 30
0.0
 11
235.817
 21
141.64
 31
0.0
  0
LINE
  8
0
 62
     0
 10
235.817
 20
141.64
 30
0.0
 11
235.806
 21
141.682
 31
0.0
  0
LINE
  8
0
 62
     0
 10
235.806
 20
141.682
 30
0.0
 11
235.676
 21
141.824
 31
0.0
  0
LINE
  8
0
 62
     0
 10
235.676
 20
141.824
 30
0.0
 11
235.489
 21
141.864
 31
0.0
  0
LINE
  8
0
 62
     0
 10
235.489
 20
141.864
 30
0.0
 11
235.449
 21
141.853
 31
0.0
  0
LINE
  8
0
 62
     0
 10
235.449
 20
141.853
 30
0.0
 11
222.603
 21
138.41
 31
0.0
  0
LINE
  8
0
 62
     0
 10
222.603
 20
138.41
 30
0.0
 11
222.563
 21
138.4
 31
0.0
  0
LINE
  8
0
 62
     0
 10
222.563
 20
138.4
 30
0.0
 11
222.419
 21
138.271
 31
0.0
  0
LINE
  8
0
 62
     0
 10
222.419
 20
138.271
 30
0.0
 11
222.379
 21
138.084
 31
0.0
  0
LINE
  8
0
 62
     0
 10
222.379
 20
138.084
 30
0.0
 11
222.39
 21
138.044
 31
0.0
  0
LINE
  8
0
 62
     0
 10
222.39
 20
138.044
 30
0.0
 11
225.833
 21
125.196
 31
0.0
  0
LINE
  8
0
 62
     0
 10
225.833
 20
125.196
 30
0.0
 11
225.843
 21
125.156
 31
0.0
  0
LINE
  8
0
 62
     0
 10
225.843
 20
125.156
 30
0.0
 11
225.972
 21
125.014
 31
0.0
  0
LINE
  8
0
 62
     0
 10
225.972
 20
125.014
 30
0.0
 11
226.159
 21
124.974
 31
0.0
  0
LINE
  8
0
 62
     0
 10
226.159
 20
124.974
 30
0.0
 11
226.199
 21
124.984
 31
0.0
  0
LINE
  8
0
 62
     0
 10
255.977
 20
140.003
 30
0.0
 11
252.535
 21
152.849
 31
0.0
  0
LINE
  8
0
 62
     0
 10
252.535
 20
152.849
 30
0.0
 11
252.524
 21
152.891
 31
0.0
  0
LINE
  8
0
 62
     0
 10
252.524
 20
152.891
 30
0.0
 11
252.395
 21
153.033
 31
0.0
  0
LINE
  8
0
 62
     0
 10
252.395
 20
153.033
 30
0.0
 11
252.207
 21
153.072
 31
0.0
  0
LINE
  8
0
 62
     0
 10
252.207
 20
153.072
 30
0.0
 11
252.167
 21
153.061
 31
0.0
  0
LINE
  8
0
 62
     0
 10
252.167
 20
153.061
 30
0.0
 11
239.321
 21
149.619
 31
0.0
  0
LINE
  8
0
 62
     0
 10
239.321
 20
149.619
 30
0.0
 11
239.281
 21
149.61
 31
0.0
  0
LINE
  8
0
 62
     0
 10
239.281
 20
149.61
 30
0.0
 11
239.138
 21
149.48
 31
0.0
  0
LINE
  8
0
 62
     0
 10
239.138
 20
149.48
 30
0.0
 11
239.098
 21
149.292
 31
0.0
  0
LINE
  8
0
 62
     0
 10
239.098
 20
149.292
 30
0.0
 11
239.109
 21
149.253
 31
0.0
  0
LINE
  8
0
 62
     0
 10
239.109
 20
149.253
 30
0.0
 11
242.551
 21
136.405
 31
0.0
  0
LINE
  8
0
 62
     0
 10
242.551
 20
136.405
 30
0.0
 11
242.561
 21
136.365
 31
0.0
  0
LINE
  8
0
 62
     0
 10
242.561
 20
136.365
 30
0.0
 11
242.69
 21
136.223
 31
0.0
  0
LINE
  8
0
 62
     0
 10
242.69
 20
136.223
 30
0.0
 11
242.878
 21
136.183
 31
0.0
  0
LINE
  8
0
 62
     0
 10
242.878
 20
136.183
 30
0.0
 11
242.919
 21
136.193
 31
0.0
  0
LINE
  8
0
 62
     0
 10
242.919
 20
136.193
 30
0.0
 11
255.765
 21
139.635
 31
0.0
  0
LINE
  8
0
 62
     0
 10
255.765
 20
139.635
 30
0.0
 11
255.805
 21
139.646
 31
0.0
  0
LINE
  8
0
 62
     0
 10
255.805
 20
139.646
 30
0.0
 11
255.947
 21
139.776
 31
0.0
  0
LINE
  8
0
 62
     0
 10
255.947
 20
139.776
 30
0.0
 11
255.987
 21
139.963
 31
0.0
  0
LINE
  8
0
 62
     0
 10
255.987
 20
139.963
 30
0.0
 11
255.977
 21
140.003
 31
0.0
  0
LINE
  8
0
 62
     0
 10
204.636
 20
130.699
 30
0.0
 11
208.078
 21
117.851
 31
0.0
  0
LINE
  8
0
 62
     0
 10
208.078
 20
117.851
 30
0.0
 11
208.088
 21
117.811
 31
0.0
  0
LINE
  8
0
 62
     0
 10
208.088
 20
117.811
 30
0.0
 11
208.218
 21
117.669
 31
0.0
  0
LINE
  8
0
 62
     0
 10
208.218
 20
117.669
 30
0.0
 11
208.406
 21
117.63
 31
0.0
  0
LINE
  8
0
 62
     0
 10
208.406
 20
117.63
 30
0.0
 11
208.446
 21
117.639
 31
0.0
  0
LINE
  8
0
 62
     0
 10
208.446
 20
117.639
 30
0.0
 11
221.294
 21
121.081
 31
0.0
  0
LINE
  8
0
 62
     0
 10
221.294
 20
121.081
 30
0.0
 11
221.333
 21
121.092
 31
0.0
  0
LINE
  8
0
 62
     0
 10
221.333
 20
121.092
 30
0.0
 11
221.476
 21
121.222
 31
0.0
  0
LINE
  8
0
 62
     0
 10
221.476
 20
121.222
 30
0.0
 11
221.516
 21
121.409
 31
0.0
  0
LINE
  8
0
 62
     0
 10
221.516
 20
121.409
 30
0.0
 11
221.505
 21
121.449
 31
0.0
  0
LINE
  8
0
 62
     0
 10
221.505
 20
121.449
 30
0.0
 11
218.064
 21
134.295
 31
0.0
  0
LINE
  8
0
 62
     0
 10
218.064
 20
134.295
 30
0.0
 11
218.053
 21
134.335
 31
0.0
  0
LINE
  8
0
 62
     0
 10
218.053
 20
134.335
 30
0.0
 11
217.923
 21
134.479
 31
0.0
  0
LINE
  8
0
 62
     0
 10
217.923
 20
134.479
 30
0.0
 11
217.736
 21
134.519
 31
0.0
  0
LINE
  8
0
 62
     0
 10
217.736
 20
134.519
 30
0.0
 11
217.696
 21
134.507
 31
0.0
  0
LINE
  8
0
 62
     0
 10
217.696
 20
134.507
 30
0.0
 11
204.848
 21
131.065
 31
0.0
  0
LINE
  8
0
 62
     0
 10
204.848
 20
131.065
 30
0.0
 11
204.808
 21
131.056
 31
0.0
  0
LINE
  8
0
 62
     0
 10
204.808
 20
131.056
 30
0.0
 11
204.665
 21
130.926
 31
0.0
  0
LINE
  8
0
 62
     0
 10
204.665
 20
130.926
 30
0.0
 11
204.625
 21
130.739
 31
0.0
  0
LINE
  8
0
 62
     0
 10
204.625
 20
130.739
 30
0.0
 11
204.636
 21
130.699
 31
0.0
  0
LINE
  8
0
 62
     0
 10
241.651
 20
89.1798
 30
0.0
 11
235.001
 21
100.697
 31
0.0
  0
LINE
  8
0
 62
     0
 10
235.001
 20
100.697
 30
0.0
 11
234.98
 21
100.733
 31
0.0
  0
LINE
  8
0
 62
     0
 10
234.98
 20
100.733
 30
0.0
 11
234.628
 21
100.828
 31
0.0
  0
LINE
  8
0
 62
     0
 10
234.628
 20
100.828
 30
0.0
 11
234.592
 21
100.808
 31
0.0
  0
LINE
  8
0
 62
     0
 10
234.592
 20
100.808
 30
0.0
 11
223.074
 21
94.1571
 31
0.0
  0
LINE
  8
0
 62
     0
 10
223.074
 20
94.1571
 30
0.0
 11
223.037
 21
94.1366
 31
0.0
  0
LINE
  8
0
 62
     0
 10
223.037
 20
94.1366
 30
0.0
 11
222.943
 21
93.7839
 31
0.0
  0
LINE
  8
0
 62
     0
 10
222.943
 20
93.7839
 30
0.0
 11
222.964
 21
93.7479
 31
0.0
  0
LINE
  8
0
 62
     0
 10
222.964
 20
93.7479
 30
0.0
 11
229.614
 21
82.229
 31
0.0
  0
LINE
  8
0
 62
     0
 10
229.614
 20
82.229
 30
0.0
 11
229.635
 21
82.193
 31
0.0
  0
LINE
  8
0
 62
     0
 10
229.635
 20
82.193
 30
0.0
 11
229.988
 21
82.0981
 31
0.0
  0
LINE
  8
0
 62
     0
 10
229.988
 20
82.0981
 30
0.0
 11
230.023
 21
82.1186
 31
0.0
  0
LINE
  8
0
 62
     0
 10
230.023
 20
82.1186
 30
0.0
 11
241.541
 21
88.7691
 31
0.0
  0
LINE
  8
0
 62
     0
 10
241.541
 20
88.7691
 30
0.0
 11
241.577
 21
88.7899
 31
0.0
  0
LINE
  8
0
 62
     0
 10
241.577
 20
88.7899
 30
0.0
 11
241.672
 21
89.1438
 31
0.0
  0
LINE
  8
0
 62
     0
 10
241.672
 20
89.1438
 30
0.0
 11
241.651
 21
89.1798
 31
0.0
  0
LINE
  8
0
 62
     0
 10
262.872
 20
135.329
 30
0.0
 11
275.719
 21
138.771
 31
0.0
  0
LINE
  8
0
 62
     0
 10
275.719
 20
138.771
 30
0.0
 11
275.759
 21
138.782
 31
0.0
  0
LINE
  8
0
 62
     0
 10
275.759
 20
138.782
 30
0.0
 11
275.901
 21
138.912
 31
0.0
  0
LINE
  8
0
 62
     0
 10
275.901
 20
138.912
 30
0.0
 11
275.941
 21
139.098
 31
0.0
  0
LINE
  8
0
 62
     0
 10
275.941
 20
139.098
 30
0.0
 11
275.932
 21
139.138
 31
0.0
  0
LINE
  8
0
 62
     0
 10
275.932
 20
139.138
 30
0.0
 11
272.489
 21
151.985
 31
0.0
  0
LINE
  8
0
 62
     0
 10
272.489
 20
151.985
 30
0.0
 11
272.478
 21
152.025
 31
0.0
  0
LINE
  8
0
 62
     0
 10
272.478
 20
152.025
 30
0.0
 11
272.349
 21
152.169
 31
0.0
  0
LINE
  8
0
 62
     0
 10
272.349
 20
152.169
 30
0.0
 11
272.161
 21
152.208
 31
0.0
  0
LINE
  8
0
 62
     0
 10
272.161
 20
152.208
 30
0.0
 11
272.121
 21
152.198
 31
0.0
  0
LINE
  8
0
 62
     0
 10
272.121
 20
152.198
 30
0.0
 11
259.275
 21
148.755
 31
0.0
  0
LINE
  8
0
 62
     0
 10
259.275
 20
148.755
 30
0.0
 11
259.235
 21
148.746
 31
0.0
  0
LINE
  8
0
 62
     0
 10
259.235
 20
148.746
 30
0.0
 11
259.092
 21
148.616
 31
0.0
  0
LINE
  8
0
 62
     0
 10
259.092
 20
148.616
 30
0.0
 11
259.052
 21
148.427
 31
0.0
  0
LINE
  8
0
 62
     0
 10
259.052
 20
148.427
 30
0.0
 11
259.063
 21
148.387
 31
0.0
  0
LINE
  8
0
 62
     0
 10
259.063
 20
148.387
 30
0.0
 11
262.505
 21
135.541
 31
0.0
  0
LINE
  8
0
 62
     0
 10
262.505
 20
135.541
 30
0.0
 11
262.515
 21
135.501
 31
0.0
  0
LINE
  8
0
 62
     0
 10
262.515
 20
135.501
 30
0.0
 11
262.644
 21
135.359
 31
0.0
  0
LINE
  8
0
 62
     0
 10
262.644
 20
135.359
 30
0.0
 11
262.832
 21
135.318
 31
0.0
  0
LINE
  8
0
 62
     0
 10
262.832
 20
135.318
 30
0.0
 11
262.872
 21
135.329
 31
0.0
  0
LINE
  8
0
 62
     0
 10
298.971
 20
146.658
 30
0.0
 11
302.413
 21
133.81
 31
0.0
  0
LINE
  8
0
 62
     0
 10
302.413
 20
133.81
 30
0.0
 11
302.423
 21
133.77
 31
0.0
  0
LINE
  8
0
 62
     0
 10
302.423
 20
133.77
 30
0.0
 11
302.552
 21
133.628
 31
0.0
  0
LINE
  8
0
 62
     0
 10
302.552
 20
133.628
 30
0.0
 11
302.74
 21
133.588
 31
0.0
  0
LINE
  8
0
 62
     0
 10
302.74
 20
133.588
 30
0.0
 11
302.78
 21
133.598
 31
0.0
  0
LINE
  8
0
 62
     0
 10
302.78
 20
133.598
 30
0.0
 11
315.627
 21
137.04
 31
0.0
  0
LINE
  8
0
 62
     0
 10
315.627
 20
137.04
 30
0.0
 11
315.667
 21
137.051
 31
0.0
  0
LINE
  8
0
 62
     0
 10
315.667
 20
137.051
 30
0.0
 11
315.809
 21
137.181
 31
0.0
  0
LINE
  8
0
 62
     0
 10
315.809
 20
137.181
 30
0.0
 11
315.849
 21
137.368
 31
0.0
  0
LINE
  8
0
 62
     0
 10
315.849
 20
137.368
 30
0.0
 11
315.839
 21
137.408
 31
0.0
  0
LINE
  8
0
 62
     0
 10
315.839
 20
137.408
 30
0.0
 11
312.397
 21
150.254
 31
0.0
  0
LINE
  8
0
 62
     0
 10
312.397
 20
150.254
 30
0.0
 11
312.386
 21
150.294
 31
0.0
  0
LINE
  8
0
 62
     0
 10
312.386
 20
150.294
 30
0.0
 11
312.257
 21
150.438
 31
0.0
  0
LINE
  8
0
 62
     0
 10
312.257
 20
150.438
 30
0.0
 11
312.069
 21
150.478
 31
0.0
  0
LINE
  8
0
 62
     0
 10
312.069
 20
150.478
 30
0.0
 11
312.029
 21
150.467
 31
0.0
  0
LINE
  8
0
 62
     0
 10
312.029
 20
150.467
 30
0.0
 11
299.182
 21
147.024
 31
0.0
  0
LINE
  8
0
 62
     0
 10
299.182
 20
147.024
 30
0.0
 11
299.142
 21
147.014
 31
0.0
  0
LINE
  8
0
 62
     0
 10
299.142
 20
147.014
 30
0.0
 11
299
 21
146.885
 31
0.0
  0
LINE
  8
0
 62
     0
 10
299
 20
146.885
 30
0.0
 11
298.96
 21
146.698
 31
0.0
  0
LINE
  8
0
 62
     0
 10
298.96
 20
146.698
 30
0.0
 11
298.971
 21
146.658
 31
0.0
  0
LINE
  8
0
 62
     0
 10
263.993
 20
129.986
 30
0.0
 11
267.436
 21
117.14
 31
0.0
  0
LINE
  8
0
 62
     0
 10
267.436
 20
117.14
 30
0.0
 11
267.445
 21
117.1
 31
0.0
  0
LINE
  8
0
 62
     0
 10
267.445
 20
117.1
 30
0.0
 11
267.575
 21
116.958
 31
0.0
  0
LINE
  8
0
 62
     0
 10
267.575
 20
116.958
 30
0.0
 11
267.763
 21
116.918
 31
0.0
  0
LINE
  8
0
 62
     0
 10
267.763
 20
116.918
 30
0.0
 11
267.802
 21
116.928
 31
0.0
  0
LINE
  8
0
 62
     0
 10
267.802
 20
116.928
 30
0.0
 11
280.65
 21
120.37
 31
0.0
  0
LINE
  8
0
 62
     0
 10
280.65
 20
120.37
 30
0.0
 11
280.69
 21
120.381
 31
0.0
  0
LINE
  8
0
 62
     0
 10
280.69
 20
120.381
 30
0.0
 11
280.832
 21
120.511
 31
0.0
  0
LINE
  8
0
 62
     0
 10
280.832
 20
120.511
 30
0.0
 11
280.872
 21
120.697
 31
0.0
  0
LINE
  8
0
 62
     0
 10
280.872
 20
120.697
 30
0.0
 11
280.862
 21
120.737
 31
0.0
  0
LINE
  8
0
 62
     0
 10
280.862
 20
120.737
 30
0.0
 11
277.42
 21
133.584
 31
0.0
  0
LINE
  8
0
 62
     0
 10
277.42
 20
133.584
 30
0.0
 11
277.409
 21
133.624
 31
0.0
  0
LINE
  8
0
 62
     0
 10
277.409
 20
133.624
 30
0.0
 11
277.279
 21
133.768
 31
0.0
  0
LINE
  8
0
 62
     0
 10
277.279
 20
133.768
 30
0.0
 11
277.092
 21
133.808
 31
0.0
  0
LINE
  8
0
 62
     0
 10
277.092
 20
133.808
 30
0.0
 11
277.052
 21
133.797
 31
0.0
  0
LINE
  8
0
 62
     0
 10
277.052
 20
133.797
 30
0.0
 11
264.206
 21
130.354
 31
0.0
  0
LINE
  8
0
 62
     0
 10
264.206
 20
130.354
 30
0.0
 11
264.166
 21
130.344
 31
0.0
  0
LINE
  8
0
 62
     0
 10
264.166
 20
130.344
 30
0.0
 11
264.022
 21
130.215
 31
0.0
  0
LINE
  8
0
 62
     0
 10
264.022
 20
130.215
 30
0.0
 11
263.983
 21
130.026
 31
0.0
  0
LINE
  8
0
 62
     0
 10
263.983
 20
130.026
 30
0.0
 11
263.993
 21
129.986
 31
0.0
  0
LINE
  8
0
 62
     0
 10
199.705
 20
149.098
 30
0.0
 11
203.148
 21
136.252
 31
0.0
  0
LINE
  8
0
 62
     0
 10
203.148
 20
136.252
 30
0.0
 11
203.159
 21
136.212
 31
0.0
  0
LINE
  8
0
 62
     0
 10
203.159
 20
136.212
 30
0.0
 11
203.288
 21
136.07
 31
0.0
  0
LINE
  8
0
 62
     0
 10
203.288
 20
136.07
 30
0.0
 11
203.476
 21
136.03
 31
0.0
  0
LINE
  8
0
 62
     0
 10
203.476
 20
136.03
 30
0.0
 11
203.516
 21
136.04
 31
0.0
  0
LINE
  8
0
 62
     0
 10
203.516
 20
136.04
 30
0.0
 11
216.363
 21
139.482
 31
0.0
  0
LINE
  8
0
 62
     0
 10
216.363
 20
139.482
 30
0.0
 11
216.403
 21
139.493
 31
0.0
  0
LINE
  8
0
 62
     0
 10
216.403
 20
139.493
 30
0.0
 11
216.545
 21
139.623
 31
0.0
  0
LINE
  8
0
 62
     0
 10
216.545
 20
139.623
 30
0.0
 11
216.585
 21
139.81
 31
0.0
  0
LINE
  8
0
 62
     0
 10
216.585
 20
139.81
 30
0.0
 11
216.575
 21
139.85
 31
0.0
  0
LINE
  8
0
 62
     0
 10
216.575
 20
139.85
 30
0.0
 11
213.133
 21
152.696
 31
0.0
  0
LINE
  8
0
 62
     0
 10
213.133
 20
152.696
 30
0.0
 11
213.122
 21
152.736
 31
0.0
  0
LINE
  8
0
 62
     0
 10
213.122
 20
152.736
 30
0.0
 11
212.992
 21
152.879
 31
0.0
  0
LINE
  8
0
 62
     0
 10
212.992
 20
152.879
 30
0.0
 11
212.805
 21
152.92
 31
0.0
  0
LINE
  8
0
 62
     0
 10
212.805
 20
152.92
 30
0.0
 11
212.765
 21
152.908
 31
0.0
  0
LINE
  8
0
 62
     0
 10
212.765
 20
152.908
 30
0.0
 11
199.917
 21
149.466
 31
0.0
  0
LINE
  8
0
 62
     0
 10
199.917
 20
149.466
 30
0.0
 11
199.878
 21
149.456
 31
0.0
  0
LINE
  8
0
 62
     0
 10
199.878
 20
149.456
 30
0.0
 11
199.734
 21
149.327
 31
0.0
  0
LINE
  8
0
 62
     0
 10
199.734
 20
149.327
 30
0.0
 11
199.694
 21
149.14
 31
0.0
  0
LINE
  8
0
 62
     0
 10
199.694
 20
149.14
 30
0.0
 11
199.705
 21
149.098
 31
0.0
  0
LINE
  8
0
 62
     0
 10
227.321
 20
119.643
 30
0.0
 11
230.764
 21
106.795
 31
0.0
  0
LINE
  8
0
 62
     0
 10
230.764
 20
106.795
 30
0.0
 11
230.773
 21
106.755
 31
0.0
  0
LINE
  8
0
 62
     0
 10
230.773
 20
106.755
 30
0.0
 11
230.903
 21
106.613
 31
0.0
  0
LINE
  8
0
 62
     0
 10
230.903
 20
106.613
 30
0.0
 11
231.09
 21
106.573
 31
0.0
  0
LINE
  8
0
 62
     0
 10
231.09
 20
106.573
 30
0.0
 11
231.13
 21
106.583
 31
0.0
  0
LINE
  8
0
 62
     0
 10
231.13
 20
106.583
 30
0.0
 11
243.978
 21
110.025
 31
0.0
  0
LINE
  8
0
 62
     0
 10
243.978
 20
110.025
 30
0.0
 11
244.017
 21
110.036
 31
0.0
  0
LINE
  8
0
 62
     0
 10
244.017
 20
110.036
 30
0.0
 11
244.159
 21
110.166
 31
0.0
  0
LINE
  8
0
 62
     0
 10
244.159
 20
110.166
 30
0.0
 11
244.199
 21
110.353
 31
0.0
  0
LINE
  8
0
 62
     0
 10
244.199
 20
110.353
 30
0.0
 11
244.19
 21
110.393
 31
0.0
  0
LINE
  8
0
 62
     0
 10
244.19
 20
110.393
 30
0.0
 11
240.748
 21
123.239
 31
0.0
  0
LINE
  8
0
 62
     0
 10
240.748
 20
123.239
 30
0.0
 11
240.736
 21
123.281
 31
0.0
  0
LINE
  8
0
 62
     0
 10
240.736
 20
123.281
 30
0.0
 11
240.607
 21
123.422
 31
0.0
  0
LINE
  8
0
 62
     0
 10
240.607
 20
123.422
 30
0.0
 11
240.419
 21
123.463
 31
0.0
  0
LINE
  8
0
 62
     0
 10
240.419
 20
123.463
 30
0.0
 11
240.38
 21
123.451
 31
0.0
  0
LINE
  8
0
 62
     0
 10
240.38
 20
123.451
 30
0.0
 11
227.534
 21
120.009
 31
0.0
  0
LINE
  8
0
 62
     0
 10
227.534
 20
120.009
 30
0.0
 11
227.493
 21
119.999
 31
0.0
  0
LINE
  8
0
 62
     0
 10
227.493
 20
119.999
 30
0.0
 11
227.35
 21
119.87
 31
0.0
  0
LINE
  8
0
 62
     0
 10
227.35
 20
119.87
 30
0.0
 11
227.31
 21
119.683
 31
0.0
  0
LINE
  8
0
 62
     0
 10
227.31
 20
119.683
 30
0.0
 11
227.321
 21
119.643
 31
0.0
  0
LINE
  8
0
 62
     0
 10
294.039
 20
165.056
 30
0.0
 11
297.481
 21
152.21
 31
0.0
  0
LINE
  8
0
 62
     0
 10
297.481
 20
152.21
 30
0.0
 11
297.491
 21
152.17
 31
0.0
  0
LINE
  8
0
 62
     0
 10
297.491
 20
152.17
 30
0.0
 11
297.62
 21
152.028
 31
0.0
  0
LINE
  8
0
 62
     0
 10
297.62
 20
152.028
 30
0.0
 11
297.809
 21
151.988
 31
0.0
  0
LINE
  8
0
 62
     0
 10
297.809
 20
151.988
 30
0.0
 11
297.849
 21
151.997
 31
0.0
  0
LINE
  8
0
 62
     0
 10
297.849
 20
151.997
 30
0.0
 11
310.695
 21
155.44
 31
0.0
  0
LINE
  8
0
 62
     0
 10
310.695
 20
155.44
 30
0.0
 11
310.735
 21
155.451
 31
0.0
  0
LINE
  8
0
 62
     0
 10
310.735
 20
155.451
 30
0.0
 11
310.877
 21
155.581
 31
0.0
  0
LINE
  8
0
 62
     0
 10
310.877
 20
155.581
 30
0.0
 11
310.919
 21
155.768
 31
0.0
  0
LINE
  8
0
 62
     0
 10
310.919
 20
155.768
 30
0.0
 11
310.908
 21
155.808
 31
0.0
  0
LINE
  8
0
 62
     0
 10
310.908
 20
155.808
 30
0.0
 11
307.465
 21
168.654
 31
0.0
  0
LINE
  8
0
 62
     0
 10
307.465
 20
168.654
 30
0.0
 11
307.454
 21
168.694
 31
0.0
  0
LINE
  8
0
 62
     0
 10
307.454
 20
168.694
 30
0.0
 11
307.324
 21
168.837
 31
0.0
  0
LINE
  8
0
 62
     0
 10
307.324
 20
168.837
 30
0.0
 11
307.139
 21
168.877
 31
0.0
  0
LINE
  8
0
 62
     0
 10
307.139
 20
168.877
 30
0.0
 11
307.099
 21
168.866
 31
0.0
  0
LINE
  8
0
 62
     0
 10
307.099
 20
168.866
 30
0.0
 11
294.251
 21
165.424
 31
0.0
  0
LINE
  8
0
 62
     0
 10
294.251
 20
165.424
 30
0.0
 11
294.211
 21
165.414
 31
0.0
  0
LINE
  8
0
 62
     0
 10
294.211
 20
165.414
 30
0.0
 11
294.068
 21
165.285
 31
0.0
  0
LINE
  8
0
 62
     0
 10
294.068
 20
165.285
 30
0.0
 11
294.028
 21
165.097
 31
0.0
  0
LINE
  8
0
 62
     0
 10
294.028
 20
165.097
 30
0.0
 11
294.039
 21
165.056
 31
0.0
  0
LINE
  8
0
 62
     0
 10
303.904
 20
128.254
 30
0.0
 11
307.347
 21
115.408
 31
0.0
  0
LINE
  8
0
 62
     0
 10
307.347
 20
115.408
 30
0.0
 11
307.356
 21
115.368
 31
0.0
  0
LINE
  8
0
 62
     0
 10
307.356
 20
115.368
 30
0.0
 11
307.486
 21
115.226
 31
0.0
  0
LINE
  8
0
 62
     0
 10
307.486
 20
115.226
 30
0.0
 11
307.673
 21
115.186
 31
0.0
  0
LINE
  8
0
 62
     0
 10
307.673
 20
115.186
 30
0.0
 11
307.715
 21
115.196
 31
0.0
  0
LINE
  8
0
 62
     0
 10
307.715
 20
115.196
 30
0.0
 11
320.561
 21
118.638
 31
0.0
  0
LINE
  8
0
 62
     0
 10
320.561
 20
118.638
 30
0.0
 11
320.601
 21
118.649
 31
0.0
  0
LINE
  8
0
 62
     0
 10
320.601
 20
118.649
 30
0.0
 11
320.742
 21
118.779
 31
0.0
  0
LINE
  8
0
 62
     0
 10
320.742
 20
118.779
 30
0.0
 11
320.783
 21
118.965
 31
0.0
  0
LINE
  8
0
 62
     0
 10
320.783
 20
118.965
 30
0.0
 11
320.773
 21
119.005
 31
0.0
  0
LINE
  8
0
 62
     0
 10
320.773
 20
119.005
 30
0.0
 11
317.331
 21
131.852
 31
0.0
  0
LINE
  8
0
 62
     0
 10
317.331
 20
131.852
 30
0.0
 11
317.319
 21
131.892
 31
0.0
  0
LINE
  8
0
 62
     0
 10
317.319
 20
131.892
 30
0.0
 11
317.19
 21
132.035
 31
0.0
  0
LINE
  8
0
 62
     0
 10
317.19
 20
132.035
 30
0.0
 11
317.004
 21
132.075
 31
0.0
  0
LINE
  8
0
 62
     0
 10
317.004
 20
132.075
 30
0.0
 11
316.964
 21
132.064
 31
0.0
  0
LINE
  8
0
 62
     0
 10
316.964
 20
132.064
 30
0.0
 11
304.117
 21
128.622
 31
0.0
  0
LINE
  8
0
 62
     0
 10
304.117
 20
128.622
 30
0.0
 11
304.076
 21
128.612
 31
0.0
  0
LINE
  8
0
 62
     0
 10
304.076
 20
128.612
 30
0.0
 11
303.933
 21
128.483
 31
0.0
  0
LINE
  8
0
 62
     0
 10
303.933
 20
128.483
 30
0.0
 11
303.893
 21
128.294
 31
0.0
  0
LINE
  8
0
 62
     0
 10
303.893
 20
128.294
 30
0.0
 11
303.904
 21
128.254
 31
0.0
  0
LINE
  8
0
 62
     0
 10
119.211
 20
130.852
 30
0.0
 11
115.769
 21
118.004
 31
0.0
  0
LINE
  8
0
 62
     0
 10
115.769
 20
118.004
 30
0.0
 11
115.758
 21
117.964
 31
0.0
  0
LINE
  8
0
 62
     0
 10
115.758
 20
117.964
 30
0.0
 11
115.629
 21
117.822
 31
0.0
  0
LINE
  8
0
 62
     0
 10
115.629
 20
117.822
 30
0.0
 11
115.441
 21
117.782
 31
0.0
  0
LINE
  8
0
 62
     0
 10
115.441
 20
117.782
 30
0.0
 11
115.401
 21
117.792
 31
0.0
  0
LINE
  8
0
 62
     0
 10
115.401
 20
117.792
 30
0.0
 11
102.554
 21
121.234
 31
0.0
  0
LINE
  8
0
 62
     0
 10
102.554
 20
121.234
 30
0.0
 11
102.514
 21
121.245
 31
0.0
  0
LINE
  8
0
 62
     0
 10
102.514
 20
121.245
 30
0.0
 11
102.37
 21
121.375
 31
0.0
  0
LINE
  8
0
 62
     0
 10
102.37
 20
121.375
 30
0.0
 11
102.33
 21
121.562
 31
0.0
  0
LINE
  8
0
 62
     0
 10
102.33
 20
121.562
 30
0.0
 11
102.342
 21
121.602
 31
0.0
  0
LINE
  8
0
 62
     0
 10
102.342
 20
121.602
 30
0.0
 11
105.784
 21
134.45
 31
0.0
  0
LINE
  8
0
 62
     0
 10
105.784
 20
134.45
 30
0.0
 11
105.795
 21
134.489
 31
0.0
  0
LINE
  8
0
 62
     0
 10
105.795
 20
134.489
 30
0.0
 11
105.924
 21
134.632
 31
0.0
  0
LINE
  8
0
 62
     0
 10
105.924
 20
134.632
 30
0.0
 11
106.112
 21
134.672
 31
0.0
  0
LINE
  8
0
 62
     0
 10
106.112
 20
134.672
 30
0.0
 11
106.152
 21
134.661
 31
0.0
  0
LINE
  8
0
 62
     0
 10
106.152
 20
134.661
 30
0.0
 11
118.999
 21
131.218
 31
0.0
  0
LINE
  8
0
 62
     0
 10
118.999
 20
131.218
 30
0.0
 11
119.039
 21
131.209
 31
0.0
  0
LINE
  8
0
 62
     0
 10
119.039
 20
131.209
 30
0.0
 11
119.181
 21
131.079
 31
0.0
  0
LINE
  8
0
 62
     0
 10
119.181
 20
131.079
 30
0.0
 11
119.221
 21
130.891
 31
0.0
  0
LINE
  8
0
 62
     0
 10
119.221
 20
130.891
 30
0.0
 11
119.211
 21
130.852
 31
0.0
  0
LINE
  8
0
 62
     0
 10
112.203
 20
158.404
 30
0.0
 11
115.645
 21
171.25
 31
0.0
  0
LINE
  8
0
 62
     0
 10
115.645
 20
171.25
 30
0.0
 11
115.655
 21
171.292
 31
0.0
  0
LINE
  8
0
 62
     0
 10
115.655
 20
171.292
 30
0.0
 11
115.784
 21
171.433
 31
0.0
  0
LINE
  8
0
 62
     0
 10
115.784
 20
171.433
 30
0.0
 11
115.973
 21
171.473
 31
0.0
  0
LINE
  8
0
 62
     0
 10
115.973
 20
171.473
 30
0.0
 11
116.013
 21
171.462
 31
0.0
  0
LINE
  8
0
 62
     0
 10
116.013
 20
171.462
 30
0.0
 11
128.859
 21
168.02
 31
0.0
  0
LINE
  8
0
 62
     0
 10
128.859
 20
168.02
 30
0.0
 11
128.899
 21
168.01
 31
0.0
  0
LINE
  8
0
 62
     0
 10
128.899
 20
168.01
 30
0.0
 11
129.041
 21
167.881
 31
0.0
  0
LINE
  8
0
 62
     0
 10
129.041
 20
167.881
 30
0.0
 11
129.081
 21
167.694
 31
0.0
  0
LINE
  8
0
 62
     0
 10
129.081
 20
167.694
 30
0.0
 11
129.071
 21
167.653
 31
0.0
  0
LINE
  8
0
 62
     0
 10
129.071
 20
167.653
 30
0.0
 11
125.629
 21
154.806
 31
0.0
  0
LINE
  8
0
 62
     0
 10
125.629
 20
154.806
 30
0.0
 11
125.618
 21
154.766
 31
0.0
  0
LINE
  8
0
 62
     0
 10
125.618
 20
154.766
 30
0.0
 11
125.488
 21
154.624
 31
0.0
  0
LINE
  8
0
 62
     0
 10
125.488
 20
154.624
 30
0.0
 11
125.302
 21
154.584
 31
0.0
  0
LINE
  8
0
 62
     0
 10
125.302
 20
154.584
 30
0.0
 11
125.262
 21
154.594
 31
0.0
  0
LINE
  8
0
 62
     0
 10
125.262
 20
154.594
 30
0.0
 11
112.415
 21
158.036
 31
0.0
  0
LINE
  8
0
 62
     0
 10
112.415
 20
158.036
 30
0.0
 11
112.375
 21
158.047
 31
0.0
  0
LINE
  8
0
 62
     0
 10
112.375
 20
158.047
 30
0.0
 11
112.232
 21
158.177
 31
0.0
  0
LINE
  8
0
 62
     0
 10
112.232
 20
158.177
 30
0.0
 11
112.191
 21
158.364
 31
0.0
  0
LINE
  8
0
 62
     0
 10
112.191
 20
158.364
 30
0.0
 11
112.203
 21
158.404
 31
0.0
  0
LINE
  8
0
 62
     0
 10
153.683
 20
112.298
 30
0.0
 11
150.241
 21
99.4502
 31
0.0
  0
LINE
  8
0
 62
     0
 10
150.241
 20
99.4502
 30
0.0
 11
150.23
 21
99.4103
 31
0.0
  0
LINE
  8
0
 62
     0
 10
150.23
 20
99.4103
 30
0.0
 11
150.1
 21
99.2685
 31
0.0
  0
LINE
  8
0
 62
     0
 10
150.1
 20
99.2685
 30
0.0
 11
149.914
 21
99.2283
 31
0.0
  0
LINE
  8
0
 62
     0
 10
149.914
 20
99.2283
 30
0.0
 11
149.874
 21
99.2382
 31
0.0
  0
LINE
  8
0
 62
     0
 10
149.874
 20
99.2382
 30
0.0
 11
137.027
 21
102.681
 31
0.0
  0
LINE
  8
0
 62
     0
 10
137.027
 20
102.681
 30
0.0
 11
136.987
 21
102.691
 31
0.0
  0
LINE
  8
0
 62
     0
 10
136.987
 20
102.691
 30
0.0
 11
136.843
 21
102.821
 31
0.0
  0
LINE
  8
0
 62
     0
 10
136.843
 20
102.821
 30
0.0
 11
136.803
 21
103.008
 31
0.0
  0
LINE
  8
0
 62
     0
 10
136.803
 20
103.008
 30
0.0
 11
136.814
 21
103.048
 31
0.0
  0
LINE
  8
0
 62
     0
 10
136.814
 20
103.048
 30
0.0
 11
140.257
 21
115.895
 31
0.0
  0
LINE
  8
0
 62
     0
 10
140.257
 20
115.895
 30
0.0
 11
140.266
 21
115.934
 31
0.0
  0
LINE
  8
0
 62
     0
 10
140.266
 20
115.934
 30
0.0
 11
140.396
 21
116.078
 31
0.0
  0
LINE
  8
0
 62
     0
 10
140.396
 20
116.078
 30
0.0
 11
140.583
 21
116.118
 31
0.0
  0
LINE
  8
0
 62
     0
 10
140.583
 20
116.118
 30
0.0
 11
140.625
 21
116.107
 31
0.0
  0
LINE
  8
0
 62
     0
 10
140.625
 20
116.107
 30
0.0
 11
153.471
 21
112.664
 31
0.0
  0
LINE
  8
0
 62
     0
 10
153.471
 20
112.664
 30
0.0
 11
153.511
 21
112.655
 31
0.0
  0
LINE
  8
0
 62
     0
 10
153.511
 20
112.655
 30
0.0
 11
153.653
 21
112.525
 31
0.0
  0
LINE
  8
0
 62
     0
 10
153.653
 20
112.525
 30
0.0
 11
153.693
 21
112.338
 31
0.0
  0
LINE
  8
0
 62
     0
 10
153.693
 20
112.338
 30
0.0
 11
153.683
 21
112.298
 31
0.0
  0
LINE
  8
0
 62
     0
 10
157.515
 20
78.2394
 30
0.0
 11
148.11
 21
68.8358
 31
0.0
  0
LINE
  8
0
 62
     0
 10
148.11
 20
68.8358
 30
0.0
 11
148.08
 21
68.8068
 31
0.0
  0
LINE
  8
0
 62
     0
 10
148.08
 20
68.8068
 30
0.0
 11
147.715
 21
68.8068
 31
0.0
  0
LINE
  8
0
 62
     0
 10
147.715
 20
68.8068
 30
0.0
 11
147.686
 21
68.8358
 31
0.0
  0
LINE
  8
0
 62
     0
 10
147.686
 20
68.8358
 30
0.0
 11
138.282
 21
78.2394
 31
0.0
  0
LINE
  8
0
 62
     0
 10
138.282
 20
78.2394
 30
0.0
 11
138.252
 21
78.2697
 31
0.0
  0
LINE
  8
0
 62
     0
 10
138.252
 20
78.2697
 30
0.0
 11
138.252
 21
78.6349
 31
0.0
  0
LINE
  8
0
 62
     0
 10
138.252
 20
78.6349
 30
0.0
 11
138.282
 21
78.6638
 31
0.0
  0
LINE
  8
0
 62
     0
 10
138.282
 20
78.6638
 30
0.0
 11
147.686
 21
88.0692
 31
0.0
  0
LINE
  8
0
 62
     0
 10
147.686
 20
88.0692
 30
0.0
 11
147.715
 21
88.0992
 31
0.0
  0
LINE
  8
0
 62
     0
 10
147.715
 20
88.0992
 30
0.0
 11
148.08
 21
88.0992
 31
0.0
  0
LINE
  8
0
 62
     0
 10
148.08
 20
88.0992
 30
0.0
 11
148.11
 21
88.0692
 31
0.0
  0
LINE
  8
0
 62
     0
 10
148.11
 20
88.0692
 30
0.0
 11
157.515
 21
78.6638
 31
0.0
  0
LINE
  8
0
 62
     0
 10
157.515
 20
78.6638
 30
0.0
 11
157.544
 21
78.6349
 31
0.0
  0
LINE
  8
0
 62
     0
 10
157.544
 20
78.6349
 30
0.0
 11
157.544
 21
78.2697
 31
0.0
  0
LINE
  8
0
 62
     0
 10
157.544
 20
78.2697
 30
0.0
 11
157.515
 21
78.2394
 31
0.0
  0
LINE
  8
0
 62
     0
 10
105.308
 20
153.73
 30
0.0
 11
92.4609
 21
157.172
 31
0.0
  0
LINE
  8
0
 62
     0
 10
92.4609
 20
157.172
 30
0.0
 11
92.4207
 21
157.183
 31
0.0
  0
LINE
  8
0
 62
     0
 10
92.4207
 20
157.183
 30
0.0
 11
92.2775
 21
157.313
 31
0.0
  0
LINE
  8
0
 62
     0
 10
92.2775
 20
157.313
 30
0.0
 11
92.2376
 21
157.499
 31
0.0
  0
LINE
  8
0
 62
     0
 10
92.2376
 20
157.499
 30
0.0
 11
92.2486
 21
157.539
 31
0.0
  0
LINE
  8
0
 62
     0
 10
92.2486
 20
157.539
 30
0.0
 11
95.691
 21
170.386
 31
0.0
  0
LINE
  8
0
 62
     0
 10
95.691
 20
170.386
 30
0.0
 11
95.7019
 21
170.426
 31
0.0
  0
LINE
  8
0
 62
     0
 10
95.7019
 20
170.426
 30
0.0
 11
95.8314
 21
170.569
 31
0.0
  0
LINE
  8
0
 62
     0
 10
95.8314
 20
170.569
 30
0.0
 11
96.0191
 21
170.609
 31
0.0
  0
LINE
  8
0
 62
     0
 10
96.0191
 20
170.609
 30
0.0
 11
96.0589
 21
170.598
 31
0.0
  0
LINE
  8
0
 62
     0
 10
96.0589
 20
170.598
 30
0.0
 11
108.906
 21
167.156
 31
0.0
  0
LINE
  8
0
 62
     0
 10
108.906
 20
167.156
 30
0.0
 11
108.946
 21
167.146
 31
0.0
  0
LINE
  8
0
 62
     0
 10
108.946
 20
167.146
 30
0.0
 11
109.088
 21
167.017
 31
0.0
  0
LINE
  8
0
 62
     0
 10
109.088
 20
167.017
 30
0.0
 11
109.128
 21
166.828
 31
0.0
  0
LINE
  8
0
 62
     0
 10
109.128
 20
166.828
 30
0.0
 11
109.119
 21
166.788
 31
0.0
  0
LINE
  8
0
 62
     0
 10
109.119
 20
166.788
 30
0.0
 11
105.676
 21
153.941
 31
0.0
  0
LINE
  8
0
 62
     0
 10
105.676
 20
153.941
 30
0.0
 11
105.665
 21
153.901
 31
0.0
  0
LINE
  8
0
 62
     0
 10
105.665
 20
153.901
 30
0.0
 11
105.536
 21
153.759
 31
0.0
  0
LINE
  8
0
 62
     0
 10
105.536
 20
153.759
 30
0.0
 11
105.348
 21
153.719
 31
0.0
  0
LINE
  8
0
 62
     0
 10
105.348
 20
153.719
 30
0.0
 11
105.308
 21
153.73
 31
0.0
  0
LINE
  8
0
 62
     0
 10
69.6214
 20
145.536
 30
0.0
 11
82.4689
 21
142.094
 31
0.0
  0
LINE
  8
0
 62
     0
 10
82.4689
 20
142.094
 30
0.0
 11
82.5087
 21
142.084
 31
0.0
  0
LINE
  8
0
 62
     0
 10
82.5087
 20
142.084
 30
0.0
 11
82.6505
 21
141.955
 31
0.0
  0
LINE
  8
0
 62
     0
 10
82.6505
 20
141.955
 30
0.0
 11
82.6904
 21
141.767
 31
0.0
  0
LINE
  8
0
 62
     0
 10
82.6904
 20
141.767
 30
0.0
 11
82.6809
 21
141.727
 31
0.0
  0
LINE
  8
0
 62
     0
 10
82.6809
 20
141.727
 30
0.0
 11
79.2385
 21
128.88
 31
0.0
  0
LINE
  8
0
 62
     0
 10
79.2385
 20
128.88
 30
0.0
 11
79.2275
 21
128.84
 31
0.0
  0
LINE
  8
0
 62
     0
 10
79.2275
 20
128.84
 30
0.0
 11
79.0981
 21
128.698
 31
0.0
  0
LINE
  8
0
 62
     0
 10
79.0981
 20
128.698
 30
0.0
 11
78.9107
 21
128.658
 31
0.0
  0
LINE
  8
0
 62
     0
 10
78.9107
 20
128.658
 30
0.0
 11
78.8705
 21
128.668
 31
0.0
  0
LINE
  8
0
 62
     0
 10
78.8705
 20
128.668
 30
0.0
 11
66.0245
 21
132.11
 31
0.0
  0
LINE
  8
0
 62
     0
 10
66.0245
 20
132.11
 30
0.0
 11
65.9846
 21
132.121
 31
0.0
  0
LINE
  8
0
 62
     0
 10
65.9846
 20
132.121
 30
0.0
 11
65.8414
 21
132.25
 31
0.0
  0
LINE
  8
0
 62
     0
 10
65.8414
 20
132.25
 30
0.0
 11
65.8012
 21
132.438
 31
0.0
  0
LINE
  8
0
 62
     0
 10
65.8012
 20
132.438
 30
0.0
 11
65.8125
 21
132.478
 31
0.0
  0
LINE
  8
0
 62
     0
 10
65.8125
 20
132.478
 30
0.0
 11
69.2549
 21
145.324
 31
0.0
  0
LINE
  8
0
 62
     0
 10
69.2549
 20
145.324
 30
0.0
 11
69.2644
 21
145.364
 31
0.0
  0
LINE
  8
0
 62
     0
 10
69.2644
 20
145.364
 30
0.0
 11
69.3939
 21
145.507
 31
0.0
  0
LINE
  8
0
 62
     0
 10
69.3939
 20
145.507
 30
0.0
 11
69.5812
 21
145.547
 31
0.0
  0
LINE
  8
0
 62
     0
 10
69.5812
 20
145.547
 30
0.0
 11
69.6214
 21
145.536
 31
0.0
  0
LINE
  8
0
 62
     0
 10
77.7505
 20
123.326
 30
0.0
 11
74.3081
 21
110.479
 31
0.0
  0
LINE
  8
0
 62
     0
 10
74.3081
 20
110.479
 30
0.0
 11
74.2968
 21
110.439
 31
0.0
  0
LINE
  8
0
 62
     0
 10
74.2968
 20
110.439
 30
0.0
 11
74.1673
 21
110.297
 31
0.0
  0
LINE
  8
0
 62
     0
 10
74.1673
 20
110.297
 30
0.0
 11
73.98
 21
110.257
 31
0.0
  0
LINE
  8
0
 62
     0
 10
73.98
 20
110.257
 30
0.0
 11
73.9401
 21
110.266
 31
0.0
  0
LINE
  8
0
 62
     0
 10
73.9401
 20
110.266
 30
0.0
 11
61.0941
 21
113.709
 31
0.0
  0
LINE
  8
0
 62
     0
 10
61.0941
 20
113.709
 30
0.0
 11
61.0538
 21
113.72
 31
0.0
  0
LINE
  8
0
 62
     0
 10
61.0538
 20
113.72
 30
0.0
 11
60.9106
 21
113.85
 31
0.0
  0
LINE
  8
0
 62
     0
 10
60.9106
 20
113.85
 30
0.0
 11
60.8707
 21
114.037
 31
0.0
  0
LINE
  8
0
 62
     0
 10
60.8707
 20
114.037
 30
0.0
 11
60.8817
 21
114.077
 31
0.0
  0
LINE
  8
0
 62
     0
 10
60.8817
 20
114.077
 30
0.0
 11
64.3241
 21
126.923
 31
0.0
  0
LINE
  8
0
 62
     0
 10
64.3241
 20
126.923
 30
0.0
 11
64.3336
 21
126.964
 31
0.0
  0
LINE
  8
0
 62
     0
 10
64.3336
 20
126.964
 30
0.0
 11
64.4631
 21
127.106
 31
0.0
  0
LINE
  8
0
 62
     0
 10
64.4631
 20
127.106
 30
0.0
 11
64.6508
 21
127.146
 31
0.0
  0
LINE
  8
0
 62
     0
 10
64.6508
 20
127.146
 30
0.0
 11
64.6906
 21
127.135
 31
0.0
  0
LINE
  8
0
 62
     0
 10
64.6906
 20
127.135
 30
0.0
 11
77.5381
 21
123.693
 31
0.0
  0
LINE
  8
0
 62
     0
 10
77.5381
 20
123.693
 30
0.0
 11
77.578
 21
123.683
 31
0.0
  0
LINE
  8
0
 62
     0
 10
77.578
 20
123.683
 30
0.0
 11
77.7201
 21
123.553
 31
0.0
  0
LINE
  8
0
 62
     0
 10
77.7201
 20
123.553
 30
0.0
 11
77.76
 21
123.366
 31
0.0
  0
LINE
  8
0
 62
     0
 10
77.76
 20
123.366
 30
0.0
 11
77.7505
 21
123.326
 31
0.0
  0
LINE
  8
0
 62
     0
 10
74.5518
 20
163.937
 30
0.0
 11
87.3993
 21
160.494
 31
0.0
  0
LINE
  8
0
 62
     0
 10
87.3993
 20
160.494
 30
0.0
 11
87.4391
 21
160.485
 31
0.0
  0
LINE
  8
0
 62
     0
 10
87.4391
 20
160.485
 30
0.0
 11
87.5813
 21
160.355
 31
0.0
  0
LINE
  8
0
 62
     0
 10
87.5813
 20
160.355
 30
0.0
 11
87.6212
 21
160.168
 31
0.0
  0
LINE
  8
0
 62
     0
 10
87.6212
 20
160.168
 30
0.0
 11
87.6117
 21
160.128
 31
0.0
  0
LINE
  8
0
 62
     0
 10
87.6117
 20
160.128
 30
0.0
 11
84.1692
 21
147.28
 31
0.0
  0
LINE
  8
0
 62
     0
 10
84.1692
 20
147.28
 30
0.0
 11
84.1583
 21
147.241
 31
0.0
  0
LINE
  8
0
 62
     0
 10
84.1583
 20
147.241
 30
0.0
 11
84.0285
 21
147.099
 31
0.0
  0
LINE
  8
0
 62
     0
 10
84.0285
 20
147.099
 30
0.0
 11
83.8412
 21
147.059
 31
0.0
  0
LINE
  8
0
 62
     0
 10
83.8412
 20
147.059
 30
0.0
 11
83.8013
 21
147.068
 31
0.0
  0
LINE
  8
0
 62
     0
 10
83.8013
 20
147.068
 30
0.0
 11
70.9553
 21
150.511
 31
0.0
  0
LINE
  8
0
 62
     0
 10
70.9553
 20
150.511
 30
0.0
 11
70.914
 21
150.522
 31
0.0
  0
LINE
  8
0
 62
     0
 10
70.914
 20
150.522
 30
0.0
 11
70.7718
 21
150.651
 31
0.0
  0
LINE
  8
0
 62
     0
 10
70.7718
 20
150.651
 30
0.0
 11
70.7319
 21
150.839
 31
0.0
  0
LINE
  8
0
 62
     0
 10
70.7319
 20
150.839
 30
0.0
 11
70.7429
 21
150.879
 31
0.0
  0
LINE
  8
0
 62
     0
 10
70.7429
 20
150.879
 30
0.0
 11
74.1853
 21
163.725
 31
0.0
  0
LINE
  8
0
 62
     0
 10
74.1853
 20
163.725
 30
0.0
 11
74.1948
 21
163.765
 31
0.0
  0
LINE
  8
0
 62
     0
 10
74.1948
 20
163.765
 30
0.0
 11
74.3246
 21
163.908
 31
0.0
  0
LINE
  8
0
 62
     0
 10
74.3246
 20
163.908
 30
0.0
 11
74.512
 21
163.948
 31
0.0
  0
LINE
  8
0
 62
     0
 10
74.512
 20
163.948
 30
0.0
 11
74.5518
 21
163.937
 31
0.0
  0
LINE
  8
0
 62
     0
 10
141.981
 20
143.385
 30
0.0
 11
129.133
 21
146.827
 31
0.0
  0
LINE
  8
0
 62
     0
 10
129.133
 20
146.827
 30
0.0
 11
129.093
 21
146.838
 31
0.0
  0
LINE
  8
0
 62
     0
 10
129.093
 20
146.838
 30
0.0
 11
128.95
 21
146.968
 31
0.0
  0
LINE
  8
0
 62
     0
 10
128.95
 20
146.968
 30
0.0
 11
128.91
 21
147.155
 31
0.0
  0
LINE
  8
0
 62
     0
 10
128.91
 20
147.155
 30
0.0
 11
128.921
 21
147.195
 31
0.0
  0
LINE
  8
0
 62
     0
 10
128.921
 20
147.195
 30
0.0
 11
132.363
 21
160.041
 31
0.0
  0
LINE
  8
0
 62
     0
 10
132.363
 20
160.041
 30
0.0
 11
132.374
 21
160.082
 31
0.0
  0
LINE
  8
0
 62
     0
 10
132.374
 20
160.082
 30
0.0
 11
132.504
 21
160.225
 31
0.0
  0
LINE
  8
0
 62
     0
 10
132.504
 20
160.225
 30
0.0
 11
132.691
 21
160.264
 31
0.0
  0
LINE
  8
0
 62
     0
 10
132.691
 20
160.264
 30
0.0
 11
132.731
 21
160.254
 31
0.0
  0
LINE
  8
0
 62
     0
 10
132.731
 20
160.254
 30
0.0
 11
145.579
 21
156.811
 31
0.0
  0
LINE
  8
0
 62
     0
 10
145.579
 20
156.811
 30
0.0
 11
145.619
 21
156.802
 31
0.0
  0
LINE
  8
0
 62
     0
 10
145.619
 20
156.802
 30
0.0
 11
145.761
 21
156.672
 31
0.0
  0
LINE
  8
0
 62
     0
 10
145.761
 20
156.672
 30
0.0
 11
145.801
 21
156.484
 31
0.0
  0
LINE
  8
0
 62
     0
 10
145.801
 20
156.484
 30
0.0
 11
145.791
 21
156.445
 31
0.0
  0
LINE
  8
0
 62
     0
 10
145.791
 20
156.445
 30
0.0
 11
142.349
 21
143.597
 31
0.0
  0
LINE
  8
0
 62
     0
 10
142.349
 20
143.597
 30
0.0
 11
142.338
 21
143.557
 31
0.0
  0
LINE
  8
0
 62
     0
 10
142.338
 20
143.557
 30
0.0
 11
142.208
 21
143.415
 31
0.0
  0
LINE
  8
0
 62
     0
 10
142.208
 20
143.415
 30
0.0
 11
142.021
 21
143.375
 31
0.0
  0
LINE
  8
0
 62
     0
 10
142.021
 20
143.375
 30
0.0
 11
141.981
 21
143.385
 31
0.0
  0
LINE
  8
0
 62
     0
 10
137.05
 20
124.984
 30
0.0
 11
124.202
 21
128.426
 31
0.0
  0
LINE
  8
0
 62
     0
 10
124.202
 20
128.426
 30
0.0
 11
124.163
 21
128.437
 31
0.0
  0
LINE
  8
0
 62
     0
 10
124.163
 20
128.437
 30
0.0
 11
124.021
 21
128.567
 31
0.0
  0
LINE
  8
0
 62
     0
 10
124.021
 20
128.567
 30
0.0
 11
123.981
 21
128.754
 31
0.0
  0
LINE
  8
0
 62
     0
 10
123.981
 20
128.754
 30
0.0
 11
123.992
 21
128.794
 31
0.0
  0
LINE
  8
0
 62
     0
 10
123.992
 20
128.794
 30
0.0
 11
127.433
 21
141.64
 31
0.0
  0
LINE
  8
0
 62
     0
 10
127.433
 20
141.64
 30
0.0
 11
127.444
 21
141.682
 31
0.0
  0
LINE
  8
0
 62
     0
 10
127.444
 20
141.682
 30
0.0
 11
127.573
 21
141.824
 31
0.0
  0
LINE
  8
0
 62
     0
 10
127.573
 20
141.824
 30
0.0
 11
127.761
 21
141.864
 31
0.0
  0
LINE
  8
0
 62
     0
 10
127.761
 20
141.864
 30
0.0
 11
127.801
 21
141.853
 31
0.0
  0
LINE
  8
0
 62
     0
 10
127.801
 20
141.853
 30
0.0
 11
140.648
 21
138.41
 31
0.0
  0
LINE
  8
0
 62
     0
 10
140.648
 20
138.41
 30
0.0
 11
140.688
 21
138.4
 31
0.0
  0
LINE
  8
0
 62
     0
 10
140.688
 20
138.4
 30
0.0
 11
140.83
 21
138.271
 31
0.0
  0
LINE
  8
0
 62
     0
 10
140.83
 20
138.271
 30
0.0
 11
140.87
 21
138.084
 31
0.0
  0
LINE
  8
0
 62
     0
 10
140.87
 20
138.084
 30
0.0
 11
140.86
 21
138.044
 31
0.0
  0
LINE
  8
0
 62
     0
 10
140.86
 20
138.044
 30
0.0
 11
137.418
 21
125.196
 31
0.0
  0
LINE
  8
0
 62
     0
 10
137.418
 20
125.196
 30
0.0
 11
137.407
 21
125.156
 31
0.0
  0
LINE
  8
0
 62
     0
 10
137.407
 20
125.156
 30
0.0
 11
137.277
 21
125.014
 31
0.0
  0
LINE
  8
0
 62
     0
 10
137.277
 20
125.014
 30
0.0
 11
137.09
 21
124.974
 31
0.0
  0
LINE
  8
0
 62
     0
 10
137.09
 20
124.974
 30
0.0
 11
137.05
 21
124.984
 31
0.0
  0
LINE
  8
0
 62
     0
 10
107.272
 20
140.003
 30
0.0
 11
110.714
 21
152.849
 31
0.0
  0
LINE
  8
0
 62
     0
 10
110.714
 20
152.849
 30
0.0
 11
110.724
 21
152.891
 31
0.0
  0
LINE
  8
0
 62
     0
 10
110.724
 20
152.891
 30
0.0
 11
110.853
 21
153.033
 31
0.0
  0
LINE
  8
0
 62
     0
 10
110.853
 20
153.033
 30
0.0
 11
111.042
 21
153.072
 31
0.0
  0
LINE
  8
0
 62
     0
 10
111.042
 20
153.072
 30
0.0
 11
111.082
 21
153.061
 31
0.0
  0
LINE
  8
0
 62
     0
 10
111.082
 20
153.061
 30
0.0
 11
123.93
 21
149.619
 31
0.0
  0
LINE
  8
0
 62
     0
 10
123.93
 20
149.619
 30
0.0
 11
123.97
 21
149.61
 31
0.0
  0
LINE
  8
0
 62
     0
 10
123.97
 20
149.61
 30
0.0
 11
124.112
 21
149.48
 31
0.0
  0
LINE
  8
0
 62
     0
 10
124.112
 20
149.48
 30
0.0
 11
124.152
 21
149.292
 31
0.0
  0
LINE
  8
0
 62
     0
 10
124.152
 20
149.292
 30
0.0
 11
124.141
 21
149.253
 31
0.0
  0
LINE
  8
0
 62
     0
 10
124.141
 20
149.253
 30
0.0
 11
120.698
 21
136.405
 31
0.0
  0
LINE
  8
0
 62
     0
 10
120.698
 20
136.405
 30
0.0
 11
120.687
 21
136.365
 31
0.0
  0
LINE
  8
0
 62
     0
 10
120.687
 20
136.365
 30
0.0
 11
120.558
 21
136.223
 31
0.0
  0
LINE
  8
0
 62
     0
 10
120.558
 20
136.223
 30
0.0
 11
120.372
 21
136.183
 31
0.0
  0
LINE
  8
0
 62
     0
 10
120.372
 20
136.183
 30
0.0
 11
120.332
 21
136.193
 31
0.0
  0
LINE
  8
0
 62
     0
 10
120.332
 20
136.193
 30
0.0
 11
107.484
 21
139.635
 31
0.0
  0
LINE
  8
0
 62
     0
 10
107.484
 20
139.635
 30
0.0
 11
107.444
 21
139.646
 31
0.0
  0
LINE
  8
0
 62
     0
 10
107.444
 20
139.646
 30
0.0
 11
107.301
 21
139.776
 31
0.0
  0
LINE
  8
0
 62
     0
 10
107.301
 20
139.776
 30
0.0
 11
107.261
 21
139.963
 31
0.0
  0
LINE
  8
0
 62
     0
 10
107.261
 20
139.963
 30
0.0
 11
107.272
 21
140.003
 31
0.0
  0
LINE
  8
0
 62
     0
 10
158.613
 20
130.699
 30
0.0
 11
155.171
 21
117.851
 31
0.0
  0
LINE
  8
0
 62
     0
 10
155.171
 20
117.851
 30
0.0
 11
155.16
 21
117.811
 31
0.0
  0
LINE
  8
0
 62
     0
 10
155.16
 20
117.811
 30
0.0
 11
155.031
 21
117.669
 31
0.0
  0
LINE
  8
0
 62
     0
 10
155.031
 20
117.669
 30
0.0
 11
154.843
 21
117.63
 31
0.0
  0
LINE
  8
0
 62
     0
 10
154.843
 20
117.63
 30
0.0
 11
154.803
 21
117.639
 31
0.0
  0
LINE
  8
0
 62
     0
 10
154.803
 20
117.639
 30
0.0
 11
141.957
 21
121.081
 31
0.0
  0
LINE
  8
0
 62
     0
 10
141.957
 20
121.081
 30
0.0
 11
141.917
 21
121.092
 31
0.0
  0
LINE
  8
0
 62
     0
 10
141.917
 20
121.092
 30
0.0
 11
141.774
 21
121.222
 31
0.0
  0
LINE
  8
0
 62
     0
 10
141.774
 20
121.222
 30
0.0
 11
141.734
 21
121.409
 31
0.0
  0
LINE
  8
0
 62
     0
 10
141.734
 20
121.409
 30
0.0
 11
141.745
 21
121.449
 31
0.0
  0
LINE
  8
0
 62
     0
 10
141.745
 20
121.449
 30
0.0
 11
145.187
 21
134.295
 31
0.0
  0
LINE
  8
0
 62
     0
 10
145.187
 20
134.295
 30
0.0
 11
145.197
 21
134.335
 31
0.0
  0
LINE
  8
0
 62
     0
 10
145.197
 20
134.335
 30
0.0
 11
145.326
 21
134.479
 31
0.0
  0
LINE
  8
0
 62
     0
 10
145.326
 20
134.479
 30
0.0
 11
145.514
 21
134.519
 31
0.0
  0
LINE
  8
0
 62
     0
 10
145.514
 20
134.519
 30
0.0
 11
145.555
 21
134.507
 31
0.0
  0
LINE
  8
0
 62
     0
 10
145.555
 20
134.507
 30
0.0
 11
158.401
 21
131.065
 31
0.0
  0
LINE
  8
0
 62
     0
 10
158.401
 20
131.065
 30
0.0
 11
158.441
 21
131.056
 31
0.0
  0
LINE
  8
0
 62
     0
 10
158.441
 20
131.056
 30
0.0
 11
158.583
 21
130.926
 31
0.0
  0
LINE
  8
0
 62
     0
 10
158.583
 20
130.926
 30
0.0
 11
158.623
 21
130.739
 31
0.0
  0
LINE
  8
0
 62
     0
 10
158.623
 20
130.739
 30
0.0
 11
158.613
 21
130.699
 31
0.0
  0
LINE
  8
0
 62
     0
 10
121.598
 20
89.1798
 30
0.0
 11
128.248
 21
100.697
 31
0.0
  0
LINE
  8
0
 62
     0
 10
128.248
 20
100.697
 30
0.0
 11
128.269
 21
100.733
 31
0.0
  0
LINE
  8
0
 62
     0
 10
128.269
 20
100.733
 30
0.0
 11
128.622
 21
100.828
 31
0.0
  0
LINE
  8
0
 62
     0
 10
128.622
 20
100.828
 30
0.0
 11
128.659
 21
100.808
 31
0.0
  0
LINE
  8
0
 62
     0
 10
128.659
 20
100.808
 30
0.0
 11
140.177
 21
94.1571
 31
0.0
  0
LINE
  8
0
 62
     0
 10
140.177
 20
94.1571
 30
0.0
 11
140.213
 21
94.1366
 31
0.0
  0
LINE
  8
0
 62
     0
 10
140.213
 20
94.1366
 30
0.0
 11
140.308
 21
93.7839
 31
0.0
  0
LINE
  8
0
 62
     0
 10
140.308
 20
93.7839
 30
0.0
 11
140.287
 21
93.7479
 31
0.0
  0
LINE
  8
0
 62
     0
 10
140.287
 20
93.7479
 30
0.0
 11
133.637
 21
82.229
 31
0.0
  0
LINE
  8
0
 62
     0
 10
133.637
 20
82.229
 30
0.0
 11
133.616
 21
82.193
 31
0.0
  0
LINE
  8
0
 62
     0
 10
133.616
 20
82.193
 30
0.0
 11
133.263
 21
82.0981
 31
0.0
  0
LINE
  8
0
 62
     0
 10
133.263
 20
82.0981
 30
0.0
 11
133.227
 21
82.1186
 31
0.0
  0
LINE
  8
0
 62
     0
 10
133.227
 20
82.1186
 30
0.0
 11
121.708
 21
88.7691
 31
0.0
  0
LINE
  8
0
 62
     0
 10
121.708
 20
88.7691
 30
0.0
 11
121.672
 21
88.7899
 31
0.0
  0
LINE
  8
0
 62
     0
 10
121.672
 20
88.7899
 30
0.0
 11
121.577
 21
89.1438
 31
0.0
  0
LINE
  8
0
 62
     0
 10
121.577
 20
89.1438
 30
0.0
 11
121.598
 21
89.1798
 31
0.0
  0
LINE
  8
0
 62
     0
 10
100.378
 20
135.329
 30
0.0
 11
87.5302
 21
138.771
 31
0.0
  0
LINE
  8
0
 62
     0
 10
87.5302
 20
138.771
 30
0.0
 11
87.4903
 21
138.782
 31
0.0
  0
LINE
  8
0
 62
     0
 10
87.4903
 20
138.782
 30
0.0
 11
87.3485
 21
138.912
 31
0.0
  0
LINE
  8
0
 62
     0
 10
87.3485
 20
138.912
 30
0.0
 11
87.3083
 21
139.098
 31
0.0
  0
LINE
  8
0
 62
     0
 10
87.3083
 20
139.098
 30
0.0
 11
87.3196
 21
139.138
 31
0.0
  0
LINE
  8
0
 62
     0
 10
87.3196
 20
139.138
 30
0.0
 11
90.7602
 21
151.985
 31
0.0
  0
LINE
  8
0
 62
     0
 10
90.7602
 20
151.985
 30
0.0
 11
90.7715
 21
152.025
 31
0.0
  0
LINE
  8
0
 62
     0
 10
90.7715
 20
152.025
 30
0.0
 11
90.901
 21
152.169
 31
0.0
  0
LINE
  8
0
 62
     0
 10
90.901
 20
152.169
 30
0.0
 11
91.0883
 21
152.208
 31
0.0
  0
LINE
  8
0
 62
     0
 10
91.0883
 20
152.208
 30
0.0
 11
91.1281
 21
152.198
 31
0.0
  0
LINE
  8
0
 62
     0
 10
91.1281
 20
152.198
 30
0.0
 11
103.976
 21
148.755
 31
0.0
  0
LINE
  8
0
 62
     0
 10
103.976
 20
148.755
 30
0.0
 11
104.016
 21
148.746
 31
0.0
  0
LINE
  8
0
 62
     0
 10
104.016
 20
148.746
 30
0.0
 11
104.158
 21
148.616
 31
0.0
  0
LINE
  8
0
 62
     0
 10
104.158
 20
148.616
 30
0.0
 11
104.198
 21
148.427
 31
0.0
  0
LINE
  8
0
 62
     0
 10
104.198
 20
148.427
 30
0.0
 11
104.188
 21
148.387
 31
0.0
  0
LINE
  8
0
 62
     0
 10
104.188
 20
148.387
 30
0.0
 11
100.746
 21
135.541
 31
0.0
  0
LINE
  8
0
 62
     0
 10
100.746
 20
135.541
 30
0.0
 11
100.735
 21
135.501
 31
0.0
  0
LINE
  8
0
 62
     0
 10
100.735
 20
135.501
 30
0.0
 11
100.605
 21
135.359
 31
0.0
  0
LINE
  8
0
 62
     0
 10
100.605
 20
135.359
 30
0.0
 11
100.417
 21
135.318
 31
0.0
  0
LINE
  8
0
 62
     0
 10
100.417
 20
135.318
 30
0.0
 11
100.378
 21
135.329
 31
0.0
  0
LINE
  8
0
 62
     0
 10
64.28
 20
146.658
 30
0.0
 11
60.8376
 21
133.81
 31
0.0
  0
LINE
  8
0
 62
     0
 10
60.8376
 20
133.81
 30
0.0
 11
60.8266
 21
133.77
 31
0.0
  0
LINE
  8
0
 62
     0
 10
60.8266
 20
133.77
 30
0.0
 11
60.6972
 21
133.628
 31
0.0
  0
LINE
  8
0
 62
     0
 10
60.6972
 20
133.628
 30
0.0
 11
60.5095
 21
133.588
 31
0.0
  0
LINE
  8
0
 62
     0
 10
60.5095
 20
133.588
 30
0.0
 11
60.4696
 21
133.598
 31
0.0
  0
LINE
  8
0
 62
     0
 10
60.4696
 20
133.598
 30
0.0
 11
47.6236
 21
137.04
 31
0.0
  0
LINE
  8
0
 62
     0
 10
47.6236
 20
137.04
 30
0.0
 11
47.5837
 21
137.051
 31
0.0
  0
LINE
  8
0
 62
     0
 10
47.5837
 20
137.051
 30
0.0
 11
47.4405
 21
137.181
 31
0.0
  0
LINE
  8
0
 62
     0
 10
47.4405
 20
137.181
 30
0.0
 11
47.4003
 21
137.368
 31
0.0
  0
LINE
  8
0
 62
     0
 10
47.4003
 20
137.368
 30
0.0
 11
47.4116
 21
137.408
 31
0.0
  0
LINE
  8
0
 62
     0
 10
47.4116
 20
137.408
 30
0.0
 11
50.8536
 21
150.254
 31
0.0
  0
LINE
  8
0
 62
     0
 10
50.8536
 20
150.254
 30
0.0
 11
50.8635
 21
150.294
 31
0.0
  0
LINE
  8
0
 62
     0
 10
50.8635
 20
150.294
 30
0.0
 11
50.993
 21
150.438
 31
0.0
  0
LINE
  8
0
 62
     0
 10
50.993
 20
150.438
 30
0.0
 11
51.1803
 21
150.478
 31
0.0
  0
LINE
  8
0
 62
     0
 10
51.1803
 20
150.478
 30
0.0
 11
51.2202
 21
150.467
 31
0.0
  0
LINE
  8
0
 62
     0
 10
51.2202
 20
150.467
 30
0.0
 11
64.0676
 21
147.024
 31
0.0
  0
LINE
  8
0
 62
     0
 10
64.0676
 20
147.024
 30
0.0
 11
64.1078
 21
147.014
 31
0.0
  0
LINE
  8
0
 62
     0
 10
64.1078
 20
147.014
 30
0.0
 11
64.2497
 21
146.885
 31
0.0
  0
LINE
  8
0
 62
     0
 10
64.2497
 20
146.885
 30
0.0
 11
64.2895
 21
146.698
 31
0.0
  0
LINE
  8
0
 62
     0
 10
64.2895
 20
146.698
 30
0.0
 11
64.28
 21
146.658
 31
0.0
  0
LINE
  8
0
 62
     0
 10
99.2572
 20
129.986
 30
0.0
 11
95.8151
 21
117.14
 31
0.0
  0
LINE
  8
0
 62
     0
 10
95.8151
 20
117.14
 30
0.0
 11
95.8039
 21
117.1
 31
0.0
  0
LINE
  8
0
 62
     0
 10
95.8039
 20
117.1
 30
0.0
 11
95.6744
 21
116.958
 31
0.0
  0
LINE
  8
0
 62
     0
 10
95.6744
 20
116.958
 30
0.0
 11
95.4871
 21
116.918
 31
0.0
  0
LINE
  8
0
 62
     0
 10
95.4871
 20
116.918
 30
0.0
 11
95.4472
 21
116.928
 31
0.0
  0
LINE
  8
0
 62
     0
 10
95.4472
 20
116.928
 30
0.0
 11
82.6012
 21
120.37
 31
0.0
  0
LINE
  8
0
 62
     0
 10
82.6012
 20
120.37
 30
0.0
 11
82.5595
 21
120.381
 31
0.0
  0
LINE
  8
0
 62
     0
 10
82.5595
 20
120.381
 30
0.0
 11
82.4177
 21
120.511
 31
0.0
  0
LINE
  8
0
 62
     0
 10
82.4177
 20
120.511
 30
0.0
 11
82.3778
 21
120.697
 31
0.0
  0
LINE
  8
0
 62
     0
 10
82.3778
 20
120.697
 30
0.0
 11
82.3888
 21
120.737
 31
0.0
  0
LINE
  8
0
 62
     0
 10
82.3888
 20
120.737
 30
0.0
 11
85.8312
 21
133.584
 31
0.0
  0
LINE
  8
0
 62
     0
 10
85.8312
 20
133.584
 30
0.0
 11
85.8407
 21
133.624
 31
0.0
  0
LINE
  8
0
 62
     0
 10
85.8407
 20
133.624
 30
0.0
 11
85.9702
 21
133.768
 31
0.0
  0
LINE
  8
0
 62
     0
 10
85.9702
 20
133.768
 30
0.0
 11
86.1579
 21
133.808
 31
0.0
  0
LINE
  8
0
 62
     0
 10
86.1579
 20
133.808
 30
0.0
 11
86.1977
 21
133.797
 31
0.0
  0
LINE
  8
0
 62
     0
 10
86.1977
 20
133.797
 30
0.0
 11
99.0452
 21
130.354
 31
0.0
  0
LINE
  8
0
 62
     0
 10
99.0452
 20
130.354
 30
0.0
 11
99.085
 21
130.344
 31
0.0
  0
LINE
  8
0
 62
     0
 10
99.085
 20
130.344
 30
0.0
 11
99.2269
 21
130.215
 31
0.0
  0
LINE
  8
0
 62
     0
 10
99.2269
 20
130.215
 30
0.0
 11
99.2671
 21
130.026
 31
0.0
  0
LINE
  8
0
 62
     0
 10
99.2671
 20
130.026
 30
0.0
 11
99.2572
 21
129.986
 31
0.0
  0
LINE
  8
0
 62
     0
 10
163.544
 20
149.098
 30
0.0
 11
160.102
 21
136.252
 31
0.0
  0
LINE
  8
0
 62
     0
 10
160.102
 20
136.252
 30
0.0
 11
160.091
 21
136.212
 31
0.0
  0
LINE
  8
0
 62
     0
 10
160.091
 20
136.212
 30
0.0
 11
159.961
 21
136.07
 31
0.0
  0
LINE
  8
0
 62
     0
 10
159.961
 20
136.07
 30
0.0
 11
159.774
 21
136.03
 31
0.0
  0
LINE
  8
0
 62
     0
 10
159.774
 20
136.03
 30
0.0
 11
159.734
 21
136.04
 31
0.0
  0
LINE
  8
0
 62
     0
 10
159.734
 20
136.04
 30
0.0
 11
146.888
 21
139.482
 31
0.0
  0
LINE
  8
0
 62
     0
 10
146.888
 20
139.482
 30
0.0
 11
146.848
 21
139.493
 31
0.0
  0
LINE
  8
0
 62
     0
 10
146.848
 20
139.493
 30
0.0
 11
146.704
 21
139.623
 31
0.0
  0
LINE
  8
0
 62
     0
 10
146.704
 20
139.623
 30
0.0
 11
146.665
 21
139.81
 31
0.0
  0
LINE
  8
0
 62
     0
 10
146.665
 20
139.81
 30
0.0
 11
146.675
 21
139.85
 31
0.0
  0
LINE
  8
0
 62
     0
 10
146.675
 20
139.85
 30
0.0
 11
150.118
 21
152.696
 31
0.0
  0
LINE
  8
0
 62
     0
 10
150.118
 20
152.696
 30
0.0
 11
150.128
 21
152.736
 31
0.0
  0
LINE
  8
0
 62
     0
 10
150.128
 20
152.736
 30
0.0
 11
150.257
 21
152.879
 31
0.0
  0
LINE
  8
0
 62
     0
 10
150.257
 20
152.879
 30
0.0
 11
150.445
 21
152.92
 31
0.0
  0
LINE
  8
0
 62
     0
 10
150.445
 20
152.92
 30
0.0
 11
150.484
 21
152.908
 31
0.0
  0
LINE
  8
0
 62
     0
 10
150.484
 20
152.908
 30
0.0
 11
163.332
 21
149.466
 31
0.0
  0
LINE
  8
0
 62
     0
 10
163.332
 20
149.466
 30
0.0
 11
163.372
 21
149.456
 31
0.0
  0
LINE
  8
0
 62
     0
 10
163.372
 20
149.456
 30
0.0
 11
163.514
 21
149.327
 31
0.0
  0
LINE
  8
0
 62
     0
 10
163.514
 20
149.327
 30
0.0
 11
163.554
 21
149.14
 31
0.0
  0
LINE
  8
0
 62
     0
 10
163.554
 20
149.14
 30
0.0
 11
163.544
 21
149.098
 31
0.0
  0
LINE
  8
0
 62
     0
 10
135.93
 20
119.643
 30
0.0
 11
132.487
 21
106.795
 31
0.0
  0
LINE
  8
0
 62
     0
 10
132.487
 20
106.795
 30
0.0
 11
132.476
 21
106.755
 31
0.0
  0
LINE
  8
0
 62
     0
 10
132.476
 20
106.755
 30
0.0
 11
132.347
 21
106.613
 31
0.0
  0
LINE
  8
0
 62
     0
 10
132.347
 20
106.613
 30
0.0
 11
132.159
 21
106.573
 31
0.0
  0
LINE
  8
0
 62
     0
 10
132.159
 20
106.573
 30
0.0
 11
132.12
 21
106.583
 31
0.0
  0
LINE
  8
0
 62
     0
 10
132.12
 20
106.583
 30
0.0
 11
119.273
 21
110.025
 31
0.0
  0
LINE
  8
0
 62
     0
 10
119.273
 20
110.025
 30
0.0
 11
119.232
 21
110.036
 31
0.0
  0
LINE
  8
0
 62
     0
 10
119.232
 20
110.036
 30
0.0
 11
119.09
 21
110.166
 31
0.0
  0
LINE
  8
0
 62
     0
 10
119.09
 20
110.166
 30
0.0
 11
119.05
 21
110.353
 31
0.0
  0
LINE
  8
0
 62
     0
 10
119.05
 20
110.353
 30
0.0
 11
119.061
 21
110.393
 31
0.0
  0
LINE
  8
0
 62
     0
 10
119.061
 20
110.393
 30
0.0
 11
122.503
 21
123.239
 31
0.0
  0
LINE
  8
0
 62
     0
 10
122.503
 20
123.239
 30
0.0
 11
122.513
 21
123.281
 31
0.0
  0
LINE
  8
0
 62
     0
 10
122.513
 20
123.281
 30
0.0
 11
122.642
 21
123.422
 31
0.0
  0
LINE
  8
0
 62
     0
 10
122.642
 20
123.422
 30
0.0
 11
122.83
 21
123.463
 31
0.0
  0
LINE
  8
0
 62
     0
 10
122.83
 20
123.463
 30
0.0
 11
122.87
 21
123.451
 31
0.0
  0
LINE
  8
0
 62
     0
 10
122.87
 20
123.451
 30
0.0
 11
135.717
 21
120.009
 31
0.0
  0
LINE
  8
0
 62
     0
 10
135.717
 20
120.009
 30
0.0
 11
135.757
 21
119.999
 31
0.0
  0
LINE
  8
0
 62
     0
 10
135.757
 20
119.999
 30
0.0
 11
135.9
 21
119.87
 31
0.0
  0
LINE
  8
0
 62
     0
 10
135.9
 20
119.87
 30
0.0
 11
135.939
 21
119.683
 31
0.0
  0
LINE
  8
0
 62
     0
 10
135.939
 20
119.683
 30
0.0
 11
135.93
 21
119.643
 31
0.0
  0
LINE
  8
0
 62
     0
 10
69.2108
 20
165.056
 30
0.0
 11
65.7684
 21
152.21
 31
0.0
  0
LINE
  8
0
 62
     0
 10
65.7684
 20
152.21
 30
0.0
 11
65.7571
 21
152.17
 31
0.0
  0
LINE
  8
0
 62
     0
 10
65.7571
 20
152.17
 30
0.0
 11
65.6276
 21
152.028
 31
0.0
  0
LINE
  8
0
 62
     0
 10
65.6276
 20
152.028
 30
0.0
 11
65.4403
 21
151.988
 31
0.0
  0
LINE
  8
0
 62
     0
 10
65.4403
 20
151.988
 30
0.0
 11
65.4004
 21
151.997
 31
0.0
  0
LINE
  8
0
 62
     0
 10
65.4004
 20
151.997
 30
0.0
 11
52.5544
 21
155.44
 31
0.0
  0
LINE
  8
0
 62
     0
 10
52.5544
 20
155.44
 30
0.0
 11
52.5141
 21
155.451
 31
0.0
  0
LINE
  8
0
 62
     0
 10
52.5141
 20
155.451
 30
0.0
 11
52.3709
 21
155.581
 31
0.0
  0
LINE
  8
0
 62
     0
 10
52.3709
 20
155.581
 30
0.0
 11
52.3311
 21
155.768
 31
0.0
  0
LINE
  8
0
 62
     0
 10
52.3311
 20
155.768
 30
0.0
 11
52.342
 21
155.808
 31
0.0
  0
LINE
  8
0
 62
     0
 10
52.342
 20
155.808
 30
0.0
 11
55.7844
 21
168.654
 31
0.0
  0
LINE
  8
0
 62
     0
 10
55.7844
 20
168.654
 30
0.0
 11
55.7939
 21
168.694
 31
0.0
  0
LINE
  8
0
 62
     0
 10
55.7939
 20
168.694
 30
0.0
 11
55.9234
 21
168.837
 31
0.0
  0
LINE
  8
0
 62
     0
 10
55.9234
 20
168.837
 30
0.0
 11
56.1111
 21
168.877
 31
0.0
  0
LINE
  8
0
 62
     0
 10
56.1111
 20
168.877
 30
0.0
 11
56.1523
 21
168.866
 31
0.0
  0
LINE
  8
0
 62
     0
 10
56.1523
 20
168.866
 30
0.0
 11
68.9984
 21
165.424
 31
0.0
  0
LINE
  8
0
 62
     0
 10
68.9984
 20
165.424
 30
0.0
 11
69.0383
 21
165.414
 31
0.0
  0
LINE
  8
0
 62
     0
 10
69.0383
 20
165.414
 30
0.0
 11
69.1804
 21
165.285
 31
0.0
  0
LINE
  8
0
 62
     0
 10
69.1804
 20
165.285
 30
0.0
 11
69.2203
 21
165.097
 31
0.0
  0
LINE
  8
0
 62
     0
 10
69.2203
 20
165.097
 30
0.0
 11
69.2108
 21
165.056
 31
0.0
  0
LINE
  8
0
 62
     0
 10
59.3453
 20
128.254
 30
0.0
 11
55.9029
 21
115.408
 31
0.0
  0
LINE
  8
0
 62
     0
 10
55.9029
 20
115.408
 30
0.0
 11
55.892
 21
115.368
 31
0.0
  0
LINE
  8
0
 62
     0
 10
55.892
 20
115.368
 30
0.0
 11
55.7622
 21
115.226
 31
0.0
  0
LINE
  8
0
 62
     0
 10
55.7622
 20
115.226
 30
0.0
 11
55.5763
 21
115.186
 31
0.0
  0
LINE
  8
0
 62
     0
 10
55.5763
 20
115.186
 30
0.0
 11
55.5364
 21
115.196
 31
0.0
  0
LINE
  8
0
 62
     0
 10
55.5364
 20
115.196
 30
0.0
 11
42.6889
 21
118.638
 31
0.0
  0
LINE
  8
0
 62
     0
 10
42.6889
 20
118.638
 30
0.0
 11
42.6491
 21
118.649
 31
0.0
  0
LINE
  8
0
 62
     0
 10
42.6491
 20
118.649
 30
0.0
 11
42.5055
 21
118.779
 31
0.0
  0
LINE
  8
0
 62
     0
 10
42.5055
 20
118.779
 30
0.0
 11
42.4656
 21
118.965
 31
0.0
  0
LINE
  8
0
 62
     0
 10
42.4656
 20
118.965
 30
0.0
 11
42.4766
 21
119.005
 31
0.0
  0
LINE
  8
0
 62
     0
 10
42.4766
 20
119.005
 30
0.0
 11
45.919
 21
131.852
 31
0.0
  0
LINE
  8
0
 62
     0
 10
45.919
 20
131.852
 30
0.0
 11
45.9285
 21
131.892
 31
0.0
  0
LINE
  8
0
 62
     0
 10
45.9285
 20
131.892
 30
0.0
 11
46.0583
 21
132.035
 31
0.0
  0
LINE
  8
0
 62
     0
 10
46.0583
 20
132.035
 30
0.0
 11
46.247
 21
132.075
 31
0.0
  0
LINE
  8
0
 62
     0
 10
46.247
 20
132.075
 30
0.0
 11
46.2869
 21
132.064
 31
0.0
  0
LINE
  8
0
 62
     0
 10
46.2869
 20
132.064
 30
0.0
 11
59.133
 21
128.622
 31
0.0
  0
LINE
  8
0
 62
     0
 10
59.133
 20
128.622
 30
0.0
 11
59.1728
 21
128.612
 31
0.0
  0
LINE
  8
0
 62
     0
 10
59.1728
 20
128.612
 30
0.0
 11
59.315
 21
128.483
 31
0.0
  0
LINE
  8
0
 62
     0
 10
59.315
 20
128.483
 30
0.0
 11
59.3563
 21
128.294
 31
0.0
  0
LINE
  8
0
 62
     0
 10
59.3563
 20
128.294
 30
0.0
 11
59.3453
 21
128.254
 31
0.0
  0
ENDSEC
  0
EOF
